<?xml version="1.0" encoding="utf-8"?>
<!-- Generator: Adobe Illustrator 23.1.1, SVG Export Plug-In . SVG Version: 6.00 Build 0)  -->
<svg version="1.1" id="Layer_1" xmlns="http://www.w3.org/2000/svg" xmlns:xlink="http://www.w3.org/1999/xlink" x="0px" y="0px"
	 viewBox="0 0 619.49 283.16" style="enable-background:new 0 0 619.49 283.16;" xml:space="preserve">
<style type="text/css">
	.st0{fill:none;}
	.st1{fill:#F7BC60;}
	.st2{fill:#FFFFFF;}
	.st3{fill:#788A9A;}
	.st4{fill:#BC2227;stroke:#FFFFFF;}
	.st5{fill:#BC2227;}
	.st6{fill:#788A9A;stroke:#000000;stroke-width:0.1;}
	.st7{fill:#FFFFFF;stroke:#000000;stroke-width:0.01;}
	.st8{fill:none;stroke:#000000;stroke-width:0.2;stroke-miterlimit:1;stroke-dasharray:4,1;}
	.st9{stroke:#FFFFFF;stroke-width:0.1;}
	.st10{fill:none;stroke:#FFFFFF;stroke-width:1.4;}
	.st11{fill:#BC2328;}
</style>
<pattern  x="-125.04" y="433.04" width="69" height="69" patternUnits="userSpaceOnUse" id="Polka_Dot_Pattern" viewBox="2.12 -70.9 69 69" style="overflow:visible;">
	<g>
		<rect x="2.12" y="-70.9" class="st0" width="69" height="69"/>
		<rect x="2.12" y="-70.9" class="st1" width="69" height="69"/>
		<g>
			<path class="st2" d="M61.77-71.65c0.02,0.07,0.01,0.13-0.03,0.19c-0.05,0.1-0.11,0.06-0.17,0.13c-0.05,0.06-0.1,0.28-0.08,0.36
				c-0.17,0.06-0.01,0.23-0.02,0.35c0,0.05-0.04,0.11-0.04,0.16c-0.01,0.12,0.02,0.27,0.07,0.37c0.1,0.2,0.27,0.41,0.44,0.54
				c0.19,0.15,0.36,0.57,0.61,0.63c0.18,0.04,0.38-0.1,0.54-0.14c0.18-0.04,0.4,0.01,0.57-0.05c0.22-0.08,0.13-0.34,0.29-0.45
				c0.1-0.07,0.29-0.01,0.41-0.05c0.2-0.07,0.34-0.26,0.38-0.46c0.02-0.08,0.01-0.14,0.04-0.22c0.04-0.1,0.11-0.16,0.09-0.29
				c-0.01-0.06-0.05-0.12-0.06-0.19c-0.02-0.11,0-0.22,0-0.34c0-0.2,0.02-0.38-0.08-0.55c-0.38-0.69-1.24-0.93-1.97-0.79
				c-0.18,0.03-0.29,0.13-0.44,0.21c-0.17,0.09-0.14,0.17-0.32,0.22c-0.08,0.03-0.22,0.12-0.21,0.22c0,0.12,0,0.05,0.01,0.17
				c-0.02,0.01-0.02,0-0.03-0.03"/>
			<path class="st2" d="M54.11-71.65c0.02,0.07,0.01,0.13-0.03,0.19c-0.05,0.1-0.11,0.06-0.17,0.13c-0.05,0.06-0.1,0.28-0.08,0.36
				c-0.17,0.06-0.01,0.23-0.02,0.35c0,0.05-0.04,0.11-0.04,0.16c-0.01,0.12,0.02,0.27,0.07,0.37c0.1,0.2,0.27,0.41,0.44,0.54
				c0.19,0.15,0.36,0.57,0.61,0.63c0.18,0.04,0.38-0.1,0.54-0.14c0.18-0.04,0.4,0.01,0.57-0.05c0.22-0.08,0.13-0.34,0.29-0.45
				c0.1-0.07,0.29-0.01,0.41-0.05c0.2-0.07,0.34-0.26,0.38-0.46c0.02-0.08,0.01-0.14,0.04-0.22c0.04-0.1,0.11-0.16,0.09-0.29
				c-0.01-0.06-0.05-0.12-0.06-0.19c-0.02-0.11,0-0.22,0-0.34c0-0.2,0.02-0.38-0.08-0.55c-0.38-0.69-1.24-0.93-1.97-0.79
				c-0.18,0.03-0.29,0.13-0.44,0.21c-0.17,0.09-0.14,0.17-0.32,0.22c-0.08,0.03-0.22,0.12-0.21,0.22c0,0.12,0,0.05,0.01,0.17
				c-0.02,0.01-0.02,0-0.03-0.03"/>
			<path class="st2" d="M46.44-71.65c0.02,0.07,0.01,0.13-0.03,0.19c-0.05,0.1-0.11,0.06-0.17,0.13c-0.05,0.06-0.1,0.28-0.08,0.36
				c-0.17,0.06-0.01,0.23-0.02,0.35c0,0.05-0.04,0.11-0.04,0.16c-0.01,0.12,0.02,0.27,0.07,0.37c0.1,0.2,0.27,0.41,0.44,0.54
				c0.19,0.15,0.36,0.57,0.61,0.63c0.18,0.04,0.38-0.1,0.54-0.14c0.18-0.04,0.4,0.01,0.57-0.05c0.22-0.08,0.13-0.34,0.29-0.45
				c0.1-0.07,0.29-0.01,0.41-0.05c0.2-0.07,0.34-0.26,0.38-0.46c0.02-0.08,0.01-0.14,0.04-0.22c0.04-0.1,0.11-0.16,0.09-0.29
				c-0.01-0.06-0.05-0.12-0.06-0.19c-0.02-0.11,0-0.22,0-0.34c0-0.2,0.02-0.38-0.08-0.55c-0.38-0.69-1.24-0.93-1.97-0.79
				c-0.18,0.03-0.29,0.13-0.44,0.21c-0.17,0.09-0.14,0.17-0.32,0.22c-0.08,0.03-0.22,0.12-0.21,0.22c0,0.12,0,0.05,0.01,0.17
				c-0.02,0.01-0.02,0-0.03-0.03"/>
			<path class="st2" d="M38.77-71.65c0.02,0.07,0.01,0.13-0.03,0.19c-0.05,0.1-0.11,0.06-0.17,0.13c-0.05,0.06-0.1,0.28-0.08,0.36
				c-0.17,0.06-0.01,0.23-0.02,0.35c0,0.05-0.04,0.11-0.04,0.16c-0.01,0.12,0.02,0.27,0.07,0.37c0.1,0.2,0.27,0.41,0.44,0.54
				c0.19,0.15,0.36,0.57,0.61,0.63c0.18,0.04,0.38-0.1,0.54-0.14c0.18-0.04,0.4,0.01,0.57-0.05c0.22-0.08,0.13-0.34,0.29-0.45
				c0.1-0.07,0.29-0.01,0.41-0.05c0.2-0.07,0.34-0.26,0.38-0.46c0.02-0.08,0.01-0.14,0.04-0.22c0.04-0.1,0.11-0.16,0.09-0.29
				c-0.01-0.06-0.05-0.12-0.06-0.19c-0.02-0.11,0-0.22,0-0.34c0-0.2,0.02-0.38-0.08-0.55c-0.38-0.69-1.24-0.93-1.97-0.79
				c-0.18,0.03-0.29,0.13-0.44,0.21c-0.17,0.09-0.14,0.17-0.32,0.22c-0.08,0.03-0.22,0.12-0.21,0.22c0,0.12,0,0.05,0.01,0.17
				c-0.02,0.01-0.02,0-0.03-0.03"/>
			<path class="st2" d="M31.11-71.65c0.02,0.07,0.01,0.13-0.03,0.19c-0.05,0.1-0.11,0.06-0.16,0.13c-0.05,0.06-0.1,0.28-0.08,0.36
				c-0.17,0.06-0.01,0.23-0.02,0.35c0,0.05-0.04,0.11-0.04,0.16c-0.01,0.12,0.02,0.27,0.07,0.37c0.1,0.2,0.27,0.41,0.43,0.54
				c0.19,0.15,0.36,0.57,0.61,0.63c0.18,0.04,0.38-0.1,0.54-0.14c0.18-0.04,0.4,0.01,0.57-0.05c0.22-0.08,0.13-0.34,0.29-0.45
				c0.1-0.07,0.29-0.01,0.41-0.05c0.2-0.07,0.34-0.26,0.38-0.46c0.02-0.08,0.01-0.14,0.04-0.22c0.04-0.1,0.11-0.16,0.09-0.29
				c-0.01-0.06-0.05-0.12-0.06-0.19c-0.02-0.11,0-0.22,0-0.34c0-0.2,0.02-0.38-0.08-0.55c-0.38-0.69-1.24-0.93-1.97-0.79
				c-0.18,0.03-0.29,0.13-0.44,0.21c-0.17,0.09-0.14,0.17-0.32,0.22c-0.08,0.03-0.22,0.12-0.21,0.22c0,0.12,0,0.05,0.01,0.17
				c-0.02,0.01-0.02,0-0.03-0.03"/>
			<path class="st2" d="M23.44-71.65c0.02,0.07,0.01,0.13-0.03,0.19c-0.05,0.1-0.11,0.06-0.17,0.13c-0.05,0.06-0.1,0.28-0.08,0.36
				c-0.17,0.06-0.01,0.23-0.02,0.35c0,0.05-0.04,0.11-0.04,0.16c-0.01,0.12,0.02,0.27,0.07,0.37c0.1,0.2,0.27,0.41,0.43,0.54
				c0.19,0.15,0.36,0.57,0.61,0.63c0.18,0.04,0.38-0.1,0.54-0.14c0.18-0.04,0.4,0.01,0.57-0.05c0.22-0.08,0.13-0.34,0.29-0.45
				c0.1-0.07,0.29-0.01,0.41-0.05c0.2-0.07,0.34-0.26,0.38-0.46c0.02-0.08,0.01-0.14,0.04-0.22c0.04-0.1,0.11-0.16,0.09-0.29
				c-0.01-0.06-0.05-0.12-0.06-0.19c-0.02-0.11,0-0.22,0-0.34c0-0.2,0.02-0.38-0.08-0.55c-0.38-0.69-1.24-0.93-1.97-0.79
				c-0.18,0.03-0.29,0.13-0.44,0.21c-0.17,0.09-0.14,0.17-0.32,0.22c-0.08,0.03-0.22,0.12-0.21,0.22c0,0.12,0,0.05,0.01,0.17
				c-0.02,0.01-0.02,0-0.03-0.03"/>
			<path class="st2" d="M15.77-71.65c0.02,0.07,0.01,0.13-0.03,0.19c-0.05,0.1-0.11,0.06-0.17,0.13c-0.05,0.06-0.1,0.28-0.08,0.36
				c-0.17,0.06-0.01,0.23-0.02,0.35c0,0.05-0.04,0.11-0.04,0.16c-0.01,0.12,0.02,0.27,0.07,0.37c0.1,0.2,0.27,0.41,0.44,0.54
				c0.19,0.15,0.36,0.57,0.61,0.63c0.18,0.04,0.38-0.1,0.54-0.14c0.18-0.04,0.4,0.01,0.57-0.05c0.22-0.08,0.13-0.34,0.29-0.45
				c0.1-0.07,0.29-0.01,0.41-0.05c0.2-0.07,0.34-0.26,0.38-0.46c0.02-0.08,0.01-0.14,0.04-0.22c0.04-0.1,0.11-0.16,0.09-0.29
				c-0.01-0.06-0.05-0.12-0.06-0.19c-0.02-0.11,0-0.22,0-0.34c0-0.2,0.02-0.38-0.08-0.55c-0.38-0.69-1.24-0.93-1.97-0.79
				c-0.18,0.03-0.29,0.13-0.44,0.21c-0.17,0.09-0.14,0.17-0.32,0.22c-0.08,0.03-0.22,0.12-0.21,0.22c0,0.12,0,0.05,0.01,0.17
				c-0.02,0.01-0.02,0-0.03-0.03"/>
			<path class="st2" d="M8.11-71.65c0.02,0.07,0.01,0.13-0.03,0.19c-0.05,0.1-0.11,0.06-0.17,0.13c-0.05,0.06-0.1,0.28-0.08,0.36
				c-0.17,0.06-0.01,0.23-0.02,0.35c0,0.05-0.04,0.11-0.04,0.16c-0.01,0.12,0.02,0.27,0.07,0.37c0.1,0.2,0.27,0.41,0.44,0.54
				c0.19,0.15,0.36,0.57,0.61,0.63c0.18,0.04,0.38-0.1,0.54-0.14c0.18-0.04,0.4,0.01,0.57-0.05c0.22-0.08,0.13-0.34,0.29-0.45
				c0.1-0.07,0.29-0.01,0.41-0.05c0.2-0.07,0.34-0.26,0.38-0.46c0.02-0.08,0.01-0.14,0.04-0.22c0.04-0.1,0.11-0.16,0.09-0.29
				c-0.01-0.06-0.05-0.12-0.06-0.19c-0.02-0.11,0-0.22,0-0.34c0-0.2,0.02-0.38-0.08-0.55c-0.38-0.69-1.24-0.93-1.97-0.79
				c-0.18,0.03-0.29,0.13-0.44,0.21c-0.17,0.09-0.14,0.17-0.32,0.22c-0.08,0.03-0.22,0.12-0.21,0.22c0,0.12,0,0.05,0.01,0.17
				c-0.02,0.01-0.02,0-0.03-0.03"/>
			<path class="st2" d="M0.44-71.65c0.02,0.07,0.01,0.13-0.03,0.19c-0.05,0.1-0.11,0.06-0.17,0.13c-0.05,0.06-0.1,0.28-0.08,0.36
				C0-70.92,0.16-70.75,0.15-70.62c0,0.05-0.04,0.11-0.04,0.16c-0.01,0.12,0.02,0.27,0.07,0.37c0.1,0.2,0.27,0.41,0.44,0.54
				c0.19,0.15,0.36,0.57,0.61,0.63c0.18,0.04,0.38-0.1,0.54-0.14c0.18-0.04,0.4,0.01,0.57-0.05c0.22-0.08,0.13-0.34,0.29-0.45
				c0.1-0.07,0.29-0.01,0.41-0.05c0.2-0.07,0.34-0.26,0.38-0.46c0.02-0.08,0.01-0.14,0.04-0.22c0.04-0.1,0.11-0.16,0.09-0.29
				c-0.01-0.06-0.05-0.12-0.06-0.19c-0.02-0.11,0-0.22,0-0.34c0-0.2,0.02-0.38-0.08-0.55c-0.38-0.69-1.24-0.93-1.97-0.79
				c-0.18,0.03-0.29,0.13-0.44,0.21c-0.17,0.09-0.14,0.17-0.32,0.22c-0.08,0.03-0.22,0.12-0.21,0.22c0,0.12,0,0.05,0.01,0.17
				c-0.02,0.01-0.02,0-0.03-0.03"/>
		</g>
		<g>
			<path class="st2" d="M69.44-71.65c0.02,0.07,0.01,0.13-0.03,0.19c-0.05,0.1-0.11,0.06-0.17,0.13c-0.05,0.06-0.1,0.28-0.08,0.36
				c-0.17,0.06-0.01,0.23-0.02,0.35c0,0.05-0.04,0.11-0.04,0.16c-0.01,0.12,0.02,0.27,0.07,0.37c0.1,0.2,0.27,0.41,0.43,0.54
				c0.19,0.15,0.36,0.57,0.61,0.63c0.18,0.04,0.38-0.1,0.54-0.14c0.18-0.04,0.4,0.01,0.57-0.05c0.22-0.08,0.13-0.34,0.29-0.45
				c0.1-0.07,0.29-0.01,0.41-0.05c0.2-0.07,0.34-0.26,0.38-0.46c0.02-0.08,0.01-0.14,0.04-0.22c0.04-0.1,0.11-0.16,0.09-0.29
				c-0.01-0.06-0.05-0.12-0.06-0.19c-0.02-0.11,0-0.22,0-0.34c0-0.2,0.02-0.38-0.08-0.55c-0.38-0.69-1.24-0.93-1.97-0.79
				c-0.18,0.03-0.29,0.13-0.44,0.21c-0.17,0.09-0.14,0.17-0.32,0.22c-0.08,0.03-0.22,0.12-0.21,0.22c0,0.12,0,0.05,0.01,0.17
				c-0.02,0.01-0.02,0-0.03-0.03"/>
		</g>
		<path class="st2" d="M0.5-71.65c0.02,0.07,0.01,0.13-0.03,0.19c-0.05,0.1-0.11,0.06-0.17,0.13c-0.05,0.06-0.1,0.28-0.08,0.36
			c-0.17,0.06-0.01,0.23-0.02,0.35c0,0.05-0.04,0.11-0.04,0.16c-0.01,0.12,0.02,0.27,0.07,0.37c0.1,0.2,0.27,0.41,0.44,0.54
			c0.19,0.15,0.36,0.57,0.61,0.63c0.18,0.04,0.38-0.1,0.54-0.14c0.18-0.04,0.4,0.01,0.57-0.05c0.22-0.08,0.13-0.34,0.29-0.45
			c0.1-0.07,0.29-0.01,0.41-0.05c0.2-0.07,0.34-0.26,0.38-0.46c0.02-0.08,0.01-0.14,0.04-0.22c0.04-0.1,0.11-0.16,0.09-0.29
			c-0.01-0.06-0.05-0.12-0.06-0.19c-0.02-0.11,0-0.22,0-0.34c0-0.2,0.02-0.38-0.08-0.55c-0.38-0.69-1.24-0.93-1.97-0.79
			c-0.18,0.03-0.29,0.13-0.44,0.21c-0.17,0.09-0.14,0.17-0.32,0.22c-0.08,0.03-0.22,0.12-0.21,0.22c0,0.12,0,0.05,0.01,0.17
			c-0.02,0.01-0.02,0-0.03-0.03"/>
		<g>
			<g>
				<path class="st2" d="M69.44-64c0.02,0.07,0.01,0.13-0.03,0.19c-0.05,0.1-0.11,0.06-0.17,0.13c-0.05,0.06-0.1,0.28-0.08,0.36
					c-0.17,0.06-0.01,0.23-0.02,0.35c0,0.05-0.04,0.11-0.04,0.16c-0.01,0.12,0.02,0.27,0.07,0.37c0.1,0.2,0.27,0.41,0.43,0.54
					c0.19,0.15,0.36,0.57,0.61,0.63c0.18,0.04,0.38-0.1,0.54-0.14c0.18-0.04,0.4,0.01,0.57-0.05c0.22-0.08,0.13-0.34,0.29-0.45
					c0.1-0.07,0.29-0.01,0.41-0.05c0.2-0.07,0.34-0.26,0.38-0.46c0.02-0.08,0.01-0.14,0.04-0.22c0.04-0.1,0.11-0.16,0.09-0.29
					c-0.01-0.06-0.05-0.12-0.06-0.19c-0.02-0.11,0-0.22,0-0.34c0-0.2,0.02-0.38-0.08-0.55c-0.38-0.69-1.24-0.93-1.97-0.79
					c-0.18,0.03-0.29,0.13-0.44,0.21c-0.17,0.09-0.14,0.17-0.32,0.22c-0.08,0.03-0.22,0.12-0.21,0.22c0,0.12,0,0.05,0.01,0.17
					c-0.02,0.01-0.02,0-0.03-0.03"/>
				<path class="st2" d="M61.78-64c0.02,0.07,0.01,0.13-0.03,0.19c-0.05,0.1-0.11,0.06-0.17,0.13c-0.05,0.06-0.1,0.28-0.08,0.36
					c-0.17,0.06-0.01,0.23-0.02,0.35c0,0.05-0.04,0.11-0.04,0.16c-0.01,0.12,0.02,0.27,0.07,0.37c0.1,0.2,0.27,0.41,0.44,0.54
					c0.19,0.15,0.36,0.57,0.61,0.63c0.18,0.04,0.38-0.1,0.54-0.14c0.18-0.04,0.4,0.01,0.57-0.05c0.22-0.08,0.13-0.34,0.29-0.45
					c0.1-0.07,0.29-0.01,0.41-0.05c0.2-0.07,0.34-0.26,0.38-0.46c0.02-0.08,0.01-0.14,0.04-0.22c0.04-0.1,0.11-0.16,0.09-0.29
					c-0.01-0.06-0.05-0.12-0.06-0.19c-0.02-0.11,0-0.22,0-0.34c0-0.2,0.02-0.38-0.08-0.55c-0.38-0.69-1.24-0.93-1.97-0.79
					c-0.18,0.03-0.29,0.13-0.44,0.21c-0.17,0.09-0.14,0.17-0.32,0.22c-0.08,0.03-0.22,0.12-0.21,0.22c0,0.12,0,0.05,0.01,0.17
					c-0.02,0.01-0.02,0-0.03-0.03"/>
				<path class="st2" d="M54.12-64c0.02,0.07,0.01,0.13-0.03,0.19c-0.05,0.1-0.11,0.06-0.17,0.13c-0.05,0.06-0.1,0.28-0.08,0.36
					c-0.17,0.06-0.01,0.23-0.02,0.35c0,0.05-0.04,0.11-0.04,0.16c-0.01,0.12,0.02,0.27,0.07,0.37c0.1,0.2,0.27,0.41,0.44,0.54
					c0.19,0.15,0.36,0.57,0.61,0.63c0.18,0.04,0.38-0.1,0.54-0.14c0.18-0.04,0.4,0.01,0.57-0.05c0.22-0.08,0.13-0.34,0.29-0.45
					c0.1-0.07,0.29-0.01,0.41-0.05c0.2-0.07,0.34-0.26,0.38-0.46c0.02-0.08,0.01-0.14,0.04-0.22c0.04-0.1,0.11-0.16,0.09-0.29
					c-0.01-0.06-0.05-0.12-0.06-0.19c-0.02-0.11,0-0.22,0-0.34c0-0.2,0.02-0.38-0.08-0.55c-0.38-0.69-1.24-0.93-1.97-0.79
					c-0.18,0.03-0.29,0.13-0.44,0.21c-0.17,0.09-0.14,0.17-0.32,0.22c-0.08,0.03-0.22,0.12-0.21,0.22c0,0.12,0,0.05,0.01,0.17
					c-0.02,0.01-0.02,0-0.03-0.03"/>
				<path class="st2" d="M46.46-64c0.02,0.07,0.01,0.13-0.03,0.19c-0.05,0.1-0.11,0.06-0.16,0.13c-0.05,0.06-0.1,0.28-0.08,0.36
					c-0.17,0.06-0.01,0.23-0.02,0.35c0,0.05-0.04,0.11-0.05,0.16c-0.01,0.12,0.02,0.27,0.07,0.37c0.1,0.2,0.27,0.41,0.44,0.54
					c0.19,0.15,0.36,0.57,0.61,0.63c0.18,0.04,0.38-0.1,0.54-0.14c0.18-0.04,0.4,0.01,0.57-0.05c0.22-0.08,0.13-0.34,0.29-0.45
					c0.1-0.07,0.29-0.01,0.41-0.05c0.2-0.07,0.34-0.26,0.38-0.46c0.02-0.08,0.01-0.14,0.04-0.22c0.04-0.1,0.11-0.16,0.09-0.29
					c-0.01-0.06-0.05-0.12-0.06-0.19c-0.02-0.11,0-0.22,0-0.34c0-0.2,0.02-0.38-0.08-0.55c-0.38-0.69-1.24-0.93-1.97-0.79
					c-0.18,0.03-0.29,0.13-0.44,0.21c-0.17,0.09-0.14,0.17-0.32,0.22c-0.08,0.03-0.22,0.12-0.21,0.22c0,0.12,0,0.05,0.01,0.17
					c-0.02,0.01-0.02,0-0.03-0.03"/>
				<path class="st2" d="M38.8-64c0.02,0.07,0.01,0.13-0.03,0.19c-0.05,0.1-0.11,0.06-0.17,0.13c-0.05,0.06-0.1,0.28-0.08,0.36
					c-0.17,0.06-0.01,0.23-0.02,0.35c0,0.05-0.04,0.11-0.04,0.16c-0.01,0.12,0.02,0.27,0.07,0.37c0.1,0.2,0.27,0.41,0.44,0.54
					c0.19,0.15,0.36,0.57,0.61,0.63c0.18,0.04,0.38-0.1,0.54-0.14c0.18-0.04,0.4,0.01,0.57-0.05c0.22-0.08,0.13-0.34,0.29-0.45
					c0.1-0.07,0.29-0.01,0.41-0.05c0.2-0.07,0.34-0.26,0.38-0.46c0.02-0.08,0.01-0.14,0.04-0.22c0.04-0.1,0.11-0.16,0.09-0.29
					c-0.01-0.06-0.05-0.12-0.06-0.19c-0.02-0.11,0-0.22,0-0.34c0-0.2,0.02-0.38-0.08-0.55c-0.38-0.69-1.24-0.93-1.97-0.79
					c-0.18,0.03-0.29,0.13-0.44,0.21c-0.17,0.09-0.14,0.17-0.32,0.22c-0.08,0.03-0.22,0.12-0.21,0.22c0,0.12,0,0.05,0.01,0.17
					c-0.02,0.01-0.02,0-0.03-0.03"/>
				<path class="st2" d="M31.14-64c0.02,0.07,0.01,0.13-0.03,0.19c-0.05,0.1-0.11,0.06-0.16,0.13c-0.05,0.06-0.1,0.28-0.08,0.36
					c-0.17,0.06-0.01,0.23-0.02,0.35c0,0.05-0.04,0.11-0.05,0.16c-0.01,0.12,0.02,0.27,0.07,0.37c0.1,0.2,0.27,0.41,0.44,0.54
					c0.19,0.15,0.36,0.57,0.61,0.63c0.18,0.04,0.38-0.1,0.54-0.14c0.18-0.04,0.4,0.01,0.57-0.05c0.22-0.08,0.13-0.34,0.29-0.45
					c0.1-0.07,0.29-0.01,0.41-0.05c0.2-0.07,0.34-0.26,0.38-0.46c0.02-0.08,0.01-0.14,0.04-0.22c0.04-0.1,0.11-0.16,0.09-0.29
					c-0.01-0.06-0.05-0.12-0.06-0.19c-0.02-0.11,0-0.22,0-0.34c0-0.2,0.02-0.38-0.08-0.55c-0.38-0.69-1.24-0.93-1.97-0.79
					c-0.18,0.03-0.29,0.13-0.44,0.21c-0.17,0.09-0.14,0.17-0.32,0.22c-0.08,0.03-0.22,0.12-0.21,0.22c0,0.12,0,0.05,0.01,0.17
					c-0.02,0.01-0.02,0-0.03-0.03"/>
				<path class="st2" d="M23.48-64c0.02,0.07,0.01,0.13-0.03,0.19c-0.05,0.1-0.11,0.06-0.17,0.13c-0.05,0.06-0.1,0.28-0.08,0.36
					c-0.17,0.06-0.01,0.23-0.02,0.35c0,0.05-0.04,0.11-0.04,0.16c-0.01,0.12,0.02,0.27,0.07,0.37c0.1,0.2,0.27,0.41,0.44,0.54
					c0.19,0.15,0.36,0.57,0.61,0.63c0.18,0.04,0.38-0.1,0.54-0.14c0.18-0.04,0.4,0.01,0.57-0.05c0.22-0.08,0.13-0.34,0.29-0.45
					c0.1-0.07,0.29-0.01,0.41-0.05c0.2-0.07,0.34-0.26,0.38-0.46c0.02-0.08,0.01-0.14,0.04-0.22c0.04-0.1,0.11-0.16,0.09-0.29
					c-0.01-0.06-0.05-0.12-0.06-0.19c-0.02-0.11,0-0.22,0-0.34c0-0.2,0.02-0.38-0.08-0.55c-0.38-0.69-1.24-0.93-1.97-0.79
					c-0.18,0.03-0.29,0.13-0.44,0.21c-0.17,0.09-0.14,0.17-0.32,0.22c-0.08,0.03-0.22,0.12-0.21,0.22c0,0.12,0,0.05,0.01,0.17
					c-0.02,0.01-0.02,0-0.03-0.03"/>
				<path class="st2" d="M15.82-64c0.02,0.07,0.01,0.13-0.03,0.19c-0.05,0.1-0.11,0.06-0.16,0.13c-0.05,0.06-0.1,0.28-0.08,0.36
					c-0.17,0.06-0.01,0.23-0.02,0.35c0,0.05-0.04,0.11-0.05,0.16c-0.01,0.12,0.02,0.27,0.07,0.37c0.1,0.2,0.27,0.41,0.44,0.54
					c0.19,0.15,0.36,0.57,0.61,0.63c0.18,0.04,0.38-0.1,0.54-0.14c0.18-0.04,0.4,0.01,0.57-0.05c0.22-0.08,0.13-0.34,0.29-0.45
					c0.1-0.07,0.29-0.01,0.41-0.05c0.2-0.07,0.34-0.26,0.38-0.46c0.02-0.08,0.01-0.14,0.04-0.22c0.04-0.1,0.11-0.16,0.09-0.29
					c-0.01-0.06-0.05-0.12-0.06-0.19c-0.02-0.11,0-0.22,0-0.34c0-0.2,0.02-0.38-0.08-0.55c-0.38-0.69-1.24-0.93-1.97-0.79
					c-0.18,0.03-0.29,0.13-0.44,0.21c-0.17,0.09-0.14,0.17-0.32,0.22c-0.08,0.03-0.22,0.12-0.21,0.22c0,0.12,0,0.05,0.01,0.17
					c-0.02,0.01-0.02,0-0.03-0.03"/>
				<path class="st2" d="M8.16-64c0.02,0.07,0.01,0.13-0.03,0.19c-0.05,0.1-0.11,0.06-0.17,0.13c-0.05,0.06-0.1,0.28-0.08,0.36
					c-0.17,0.06-0.01,0.23-0.02,0.35c0,0.05-0.04,0.11-0.04,0.16c-0.01,0.12,0.02,0.27,0.07,0.37c0.1,0.2,0.27,0.41,0.44,0.54
					c0.19,0.15,0.36,0.57,0.61,0.63c0.18,0.04,0.38-0.1,0.54-0.14c0.18-0.04,0.4,0.01,0.57-0.05c0.22-0.08,0.13-0.34,0.29-0.45
					c0.1-0.07,0.29-0.01,0.41-0.05c0.2-0.07,0.34-0.26,0.38-0.46c0.02-0.08,0.01-0.14,0.04-0.22c0.04-0.1,0.11-0.16,0.09-0.29
					c-0.01-0.06-0.05-0.12-0.06-0.19c-0.02-0.11,0-0.22,0-0.34c0-0.2,0.02-0.38-0.08-0.55c-0.38-0.69-1.24-0.93-1.97-0.79
					c-0.18,0.03-0.29,0.13-0.44,0.21c-0.17,0.09-0.14,0.17-0.32,0.22c-0.08,0.03-0.22,0.12-0.21,0.22c0,0.12,0,0.05,0.01,0.17
					c-0.02,0.01-0.02,0-0.03-0.03"/>
				<path class="st2" d="M0.5-64c0.02,0.07,0.01,0.13-0.03,0.19c-0.05,0.1-0.11,0.06-0.17,0.13c-0.05,0.06-0.1,0.28-0.08,0.36
					c-0.17,0.06-0.01,0.23-0.02,0.35c0,0.05-0.04,0.11-0.04,0.16c-0.01,0.12,0.02,0.27,0.07,0.37c0.1,0.2,0.27,0.41,0.44,0.54
					c0.19,0.15,0.36,0.57,0.61,0.63c0.18,0.04,0.38-0.1,0.54-0.14c0.18-0.04,0.4,0.01,0.57-0.05c0.22-0.08,0.13-0.34,0.29-0.45
					c0.1-0.07,0.29-0.01,0.41-0.05c0.2-0.07,0.34-0.26,0.38-0.46c0.02-0.08,0.01-0.14,0.04-0.22c0.04-0.1,0.11-0.16,0.09-0.29
					C3.58-63,3.54-63.05,3.53-63.12c-0.02-0.11,0-0.22,0-0.34c0-0.2,0.02-0.38-0.08-0.55c-0.38-0.69-1.24-0.93-1.97-0.79
					c-0.18,0.03-0.29,0.13-0.44,0.21c-0.17,0.09-0.14,0.17-0.32,0.22c-0.08,0.03-0.22,0.12-0.21,0.22c0,0.12,0,0.05,0.01,0.17
					c-0.02,0.01-0.02,0-0.03-0.03"/>
			</g>
			<g>
				<path class="st2" d="M69.44-56.35c0.02,0.07,0.01,0.13-0.03,0.19c-0.05,0.1-0.11,0.06-0.17,0.13c-0.05,0.06-0.1,0.28-0.08,0.36
					c-0.17,0.06-0.01,0.23-0.02,0.35c0,0.05-0.04,0.11-0.04,0.16c-0.01,0.12,0.02,0.27,0.07,0.37c0.1,0.2,0.27,0.41,0.43,0.54
					c0.19,0.15,0.36,0.57,0.61,0.63c0.18,0.04,0.38-0.1,0.54-0.14c0.18-0.04,0.4,0.01,0.57-0.05c0.22-0.08,0.13-0.34,0.29-0.45
					c0.1-0.07,0.29-0.01,0.41-0.05c0.2-0.07,0.34-0.26,0.38-0.46c0.02-0.08,0.01-0.14,0.04-0.22c0.04-0.1,0.11-0.16,0.09-0.29
					c-0.01-0.06-0.05-0.12-0.06-0.19c-0.02-0.11,0-0.22,0-0.34c0-0.2,0.02-0.38-0.08-0.55c-0.38-0.69-1.24-0.93-1.97-0.79
					c-0.18,0.03-0.29,0.13-0.44,0.21c-0.17,0.09-0.14,0.17-0.32,0.22c-0.08,0.03-0.22,0.12-0.21,0.22c0,0.12,0,0.05,0.01,0.17
					c-0.02,0.01-0.02,0-0.03-0.03"/>
				<path class="st2" d="M61.78-56.35c0.02,0.07,0.01,0.13-0.03,0.19c-0.05,0.1-0.11,0.06-0.17,0.13c-0.05,0.06-0.1,0.28-0.08,0.36
					c-0.17,0.06-0.01,0.23-0.02,0.35c0,0.05-0.04,0.11-0.04,0.16c-0.01,0.12,0.02,0.27,0.07,0.37c0.1,0.2,0.27,0.41,0.44,0.54
					c0.19,0.15,0.36,0.57,0.61,0.63c0.18,0.04,0.38-0.1,0.54-0.14c0.18-0.04,0.4,0.01,0.57-0.05c0.22-0.08,0.13-0.34,0.29-0.45
					c0.1-0.07,0.29-0.01,0.41-0.05c0.2-0.07,0.34-0.26,0.38-0.46c0.02-0.08,0.01-0.14,0.04-0.22c0.04-0.1,0.11-0.16,0.09-0.29
					c-0.01-0.06-0.05-0.12-0.06-0.19c-0.02-0.11,0-0.22,0-0.34c0-0.2,0.02-0.38-0.08-0.55c-0.38-0.69-1.24-0.93-1.97-0.79
					c-0.18,0.03-0.29,0.13-0.44,0.21c-0.17,0.09-0.14,0.17-0.32,0.22c-0.08,0.03-0.22,0.12-0.21,0.22c0,0.12,0,0.05,0.01,0.17
					c-0.02,0.01-0.02,0-0.03-0.03"/>
				<path class="st2" d="M54.12-56.35c0.02,0.07,0.01,0.13-0.03,0.19c-0.05,0.1-0.11,0.06-0.17,0.13c-0.05,0.06-0.1,0.28-0.08,0.36
					c-0.17,0.06-0.01,0.23-0.02,0.35c0,0.05-0.04,0.11-0.04,0.16c-0.01,0.12,0.02,0.27,0.07,0.37c0.1,0.2,0.27,0.41,0.44,0.54
					c0.19,0.15,0.36,0.57,0.61,0.63c0.18,0.04,0.38-0.1,0.54-0.14c0.18-0.04,0.4,0.01,0.57-0.05c0.22-0.08,0.13-0.34,0.29-0.45
					c0.1-0.07,0.29-0.01,0.41-0.05c0.2-0.07,0.34-0.26,0.38-0.46c0.02-0.08,0.01-0.14,0.04-0.22c0.04-0.1,0.11-0.16,0.09-0.29
					c-0.01-0.06-0.05-0.12-0.06-0.19c-0.02-0.11,0-0.22,0-0.34c0-0.2,0.02-0.38-0.08-0.55c-0.38-0.69-1.24-0.93-1.97-0.79
					c-0.18,0.03-0.29,0.13-0.44,0.21c-0.17,0.09-0.14,0.17-0.32,0.22c-0.08,0.03-0.22,0.12-0.21,0.22c0,0.12,0,0.05,0.01,0.17
					c-0.02,0.01-0.02,0-0.03-0.03"/>
				<path class="st2" d="M46.46-56.35c0.02,0.07,0.01,0.13-0.03,0.19c-0.05,0.1-0.11,0.06-0.16,0.13c-0.05,0.06-0.1,0.28-0.08,0.36
					c-0.17,0.06-0.01,0.23-0.02,0.35c0,0.05-0.04,0.11-0.05,0.16c-0.01,0.12,0.02,0.27,0.07,0.37c0.1,0.2,0.27,0.41,0.44,0.54
					c0.19,0.15,0.36,0.57,0.61,0.63c0.18,0.04,0.38-0.1,0.54-0.14c0.18-0.04,0.4,0.01,0.57-0.05c0.22-0.08,0.13-0.34,0.29-0.45
					c0.1-0.07,0.29-0.01,0.41-0.05c0.2-0.07,0.34-0.26,0.38-0.46c0.02-0.08,0.01-0.14,0.04-0.22c0.04-0.1,0.11-0.16,0.09-0.29
					c-0.01-0.06-0.05-0.12-0.06-0.19c-0.02-0.11,0-0.22,0-0.34c0-0.2,0.02-0.38-0.08-0.55c-0.38-0.69-1.24-0.93-1.97-0.79
					c-0.18,0.03-0.29,0.13-0.44,0.21c-0.17,0.09-0.14,0.17-0.32,0.22c-0.08,0.03-0.22,0.12-0.21,0.22c0,0.12,0,0.05,0.01,0.17
					c-0.02,0.01-0.02,0-0.03-0.03"/>
				<path class="st2" d="M38.8-56.35c0.02,0.07,0.01,0.13-0.03,0.19c-0.05,0.1-0.11,0.06-0.17,0.13c-0.05,0.06-0.1,0.28-0.08,0.36
					c-0.17,0.06-0.01,0.23-0.02,0.35c0,0.05-0.04,0.11-0.04,0.16c-0.01,0.12,0.02,0.27,0.07,0.37c0.1,0.2,0.27,0.41,0.44,0.54
					c0.19,0.15,0.36,0.57,0.61,0.63c0.18,0.04,0.38-0.1,0.54-0.14c0.18-0.04,0.4,0.01,0.57-0.05c0.22-0.08,0.13-0.34,0.29-0.45
					c0.1-0.07,0.29-0.01,0.41-0.05c0.2-0.07,0.34-0.26,0.38-0.46c0.02-0.08,0.01-0.14,0.04-0.22c0.04-0.1,0.11-0.16,0.09-0.29
					c-0.01-0.06-0.05-0.12-0.06-0.19c-0.02-0.11,0-0.22,0-0.34c0-0.2,0.02-0.38-0.08-0.55c-0.38-0.69-1.24-0.93-1.97-0.79
					c-0.18,0.03-0.29,0.13-0.44,0.21c-0.17,0.09-0.14,0.17-0.32,0.22c-0.08,0.03-0.22,0.12-0.21,0.22c0,0.12,0,0.05,0.01,0.17
					c-0.02,0.01-0.02,0-0.03-0.03"/>
				<path class="st2" d="M31.14-56.35c0.02,0.07,0.01,0.13-0.03,0.19c-0.05,0.1-0.11,0.06-0.16,0.13c-0.05,0.06-0.1,0.28-0.08,0.36
					c-0.17,0.06-0.01,0.23-0.02,0.35c0,0.05-0.04,0.11-0.05,0.16c-0.01,0.12,0.02,0.27,0.07,0.37c0.1,0.2,0.27,0.41,0.44,0.54
					c0.19,0.15,0.36,0.57,0.61,0.63c0.18,0.04,0.38-0.1,0.54-0.14c0.18-0.04,0.4,0.01,0.57-0.05c0.22-0.08,0.13-0.34,0.29-0.45
					c0.1-0.07,0.29-0.01,0.41-0.05c0.2-0.07,0.34-0.26,0.38-0.46c0.02-0.08,0.01-0.14,0.04-0.22c0.04-0.1,0.11-0.16,0.09-0.29
					c-0.01-0.06-0.05-0.12-0.06-0.19c-0.02-0.11,0-0.22,0-0.34c0-0.2,0.02-0.38-0.08-0.55c-0.38-0.69-1.24-0.93-1.97-0.79
					c-0.18,0.03-0.29,0.13-0.44,0.21c-0.17,0.09-0.14,0.17-0.32,0.22c-0.08,0.03-0.22,0.12-0.21,0.22c0,0.12,0,0.05,0.01,0.17
					c-0.02,0.01-0.02,0-0.03-0.03"/>
				<path class="st2" d="M23.48-56.35c0.02,0.07,0.01,0.13-0.03,0.19c-0.05,0.1-0.11,0.06-0.17,0.13c-0.05,0.06-0.1,0.28-0.08,0.36
					c-0.17,0.06-0.01,0.23-0.02,0.35c0,0.05-0.04,0.11-0.04,0.16c-0.01,0.12,0.02,0.27,0.07,0.37c0.1,0.2,0.27,0.41,0.44,0.54
					c0.19,0.15,0.36,0.57,0.61,0.63c0.18,0.04,0.38-0.1,0.54-0.14c0.18-0.04,0.4,0.01,0.57-0.05c0.22-0.08,0.13-0.34,0.29-0.45
					c0.1-0.07,0.29-0.01,0.41-0.05c0.2-0.07,0.34-0.26,0.38-0.46c0.02-0.08,0.01-0.14,0.04-0.22c0.04-0.1,0.11-0.16,0.09-0.29
					c-0.01-0.06-0.05-0.12-0.06-0.19c-0.02-0.11,0-0.22,0-0.34c0-0.2,0.02-0.38-0.08-0.55c-0.38-0.69-1.24-0.93-1.97-0.79
					c-0.18,0.03-0.29,0.13-0.44,0.21c-0.17,0.09-0.14,0.17-0.32,0.22c-0.08,0.03-0.22,0.12-0.21,0.22c0,0.12,0,0.05,0.01,0.17
					c-0.02,0.01-0.02,0-0.03-0.03"/>
				<path class="st2" d="M15.82-56.35c0.02,0.07,0.01,0.13-0.03,0.19c-0.05,0.1-0.11,0.06-0.16,0.13c-0.05,0.06-0.1,0.28-0.08,0.36
					c-0.17,0.06-0.01,0.23-0.02,0.35c0,0.05-0.04,0.11-0.05,0.16c-0.01,0.12,0.02,0.27,0.07,0.37c0.1,0.2,0.27,0.41,0.44,0.54
					c0.19,0.15,0.36,0.57,0.61,0.63c0.18,0.04,0.38-0.1,0.54-0.14c0.18-0.04,0.4,0.01,0.57-0.05c0.22-0.08,0.13-0.34,0.29-0.45
					c0.1-0.07,0.29-0.01,0.41-0.05c0.2-0.07,0.34-0.26,0.38-0.46c0.02-0.08,0.01-0.14,0.04-0.22c0.04-0.1,0.11-0.16,0.09-0.29
					c-0.01-0.06-0.05-0.12-0.06-0.19c-0.02-0.11,0-0.22,0-0.34c0-0.2,0.02-0.38-0.08-0.55c-0.38-0.69-1.24-0.93-1.97-0.79
					c-0.18,0.03-0.29,0.13-0.44,0.21c-0.17,0.09-0.14,0.17-0.32,0.22c-0.08,0.03-0.22,0.12-0.21,0.22c0,0.12,0,0.05,0.01,0.17
					c-0.02,0.01-0.02,0-0.03-0.03"/>
				<path class="st2" d="M8.16-56.35c0.02,0.07,0.01,0.13-0.03,0.19c-0.05,0.1-0.11,0.06-0.17,0.13c-0.05,0.06-0.1,0.28-0.08,0.36
					c-0.17,0.06-0.01,0.23-0.02,0.35c0,0.05-0.04,0.11-0.04,0.16c-0.01,0.12,0.02,0.27,0.07,0.37c0.1,0.2,0.27,0.41,0.44,0.54
					c0.19,0.15,0.36,0.57,0.61,0.63c0.18,0.04,0.38-0.1,0.54-0.14c0.18-0.04,0.4,0.01,0.57-0.05c0.22-0.08,0.13-0.34,0.29-0.45
					c0.1-0.07,0.29-0.01,0.41-0.05c0.2-0.07,0.34-0.26,0.38-0.46c0.02-0.08,0.01-0.14,0.04-0.22c0.04-0.1,0.11-0.16,0.09-0.29
					c-0.01-0.06-0.05-0.12-0.06-0.19c-0.02-0.11,0-0.22,0-0.34c0-0.2,0.02-0.38-0.08-0.55c-0.38-0.69-1.24-0.93-1.97-0.79
					c-0.18,0.03-0.29,0.13-0.44,0.21c-0.17,0.09-0.14,0.17-0.32,0.22c-0.08,0.03-0.22,0.12-0.21,0.22c0,0.12,0,0.05,0.01,0.17
					c-0.02,0.01-0.02,0-0.03-0.03"/>
				<path class="st2" d="M0.5-56.35c0.02,0.07,0.01,0.13-0.03,0.19c-0.05,0.1-0.11,0.06-0.17,0.13c-0.05,0.06-0.1,0.28-0.08,0.36
					c-0.17,0.06-0.01,0.23-0.02,0.35c0,0.05-0.04,0.11-0.04,0.16c-0.01,0.12,0.02,0.27,0.07,0.37c0.1,0.2,0.27,0.41,0.44,0.54
					c0.19,0.15,0.36,0.57,0.61,0.63c0.18,0.04,0.38-0.1,0.54-0.14c0.18-0.04,0.4,0.01,0.57-0.05c0.22-0.08,0.13-0.34,0.29-0.45
					c0.1-0.07,0.29-0.01,0.41-0.05c0.2-0.07,0.34-0.26,0.38-0.46c0.02-0.08,0.01-0.14,0.04-0.22c0.04-0.1,0.11-0.16,0.09-0.29
					c-0.01-0.06-0.05-0.12-0.06-0.19c-0.02-0.11,0-0.22,0-0.34c0-0.2,0.02-0.38-0.08-0.55c-0.38-0.69-1.24-0.93-1.97-0.79
					c-0.18,0.03-0.29,0.13-0.44,0.21c-0.17,0.09-0.14,0.17-0.32,0.22c-0.08,0.03-0.22,0.12-0.21,0.22c0,0.12,0,0.05,0.01,0.17
					c-0.02,0.01-0.02,0-0.03-0.03"/>
			</g>
			<g>
				<path class="st2" d="M69.44-48.7c0.02,0.07,0.01,0.13-0.03,0.19c-0.05,0.1-0.11,0.06-0.17,0.13c-0.05,0.06-0.1,0.28-0.08,0.36
					c-0.17,0.06-0.01,0.23-0.02,0.35c0,0.05-0.04,0.11-0.04,0.16c-0.01,0.12,0.02,0.27,0.07,0.37c0.1,0.2,0.27,0.41,0.43,0.54
					c0.19,0.15,0.36,0.57,0.61,0.63c0.18,0.04,0.38-0.1,0.54-0.14c0.18-0.04,0.4,0.01,0.57-0.05c0.22-0.08,0.13-0.34,0.29-0.45
					c0.1-0.07,0.29-0.01,0.41-0.05c0.2-0.07,0.34-0.26,0.38-0.46c0.02-0.08,0.01-0.14,0.04-0.22c0.04-0.1,0.11-0.16,0.09-0.29
					c-0.01-0.06-0.05-0.12-0.06-0.19c-0.02-0.11,0-0.22,0-0.34c0-0.2,0.02-0.38-0.08-0.55c-0.38-0.69-1.24-0.93-1.97-0.79
					c-0.18,0.03-0.29,0.13-0.44,0.21c-0.17,0.09-0.14,0.17-0.32,0.22c-0.08,0.03-0.22,0.12-0.21,0.22c0,0.12,0,0.05,0.01,0.17
					c-0.02,0.01-0.02,0-0.03-0.03"/>
				<path class="st2" d="M61.78-48.7c0.02,0.07,0.01,0.13-0.03,0.19c-0.05,0.1-0.11,0.06-0.17,0.13c-0.05,0.06-0.1,0.28-0.08,0.36
					c-0.17,0.06-0.01,0.23-0.02,0.35c0,0.05-0.04,0.11-0.04,0.16c-0.01,0.12,0.02,0.27,0.07,0.37c0.1,0.2,0.27,0.41,0.44,0.54
					c0.19,0.15,0.36,0.57,0.61,0.63c0.18,0.04,0.38-0.1,0.54-0.14c0.18-0.04,0.4,0.01,0.57-0.05c0.22-0.08,0.13-0.34,0.29-0.45
					c0.1-0.07,0.29-0.01,0.41-0.05c0.2-0.07,0.34-0.26,0.38-0.46c0.02-0.08,0.01-0.14,0.04-0.22c0.04-0.1,0.11-0.16,0.09-0.29
					c-0.01-0.06-0.05-0.12-0.06-0.19c-0.02-0.11,0-0.22,0-0.34c0-0.2,0.02-0.38-0.08-0.55c-0.38-0.69-1.24-0.93-1.97-0.79
					c-0.18,0.03-0.29,0.13-0.44,0.21c-0.17,0.09-0.14,0.17-0.32,0.22c-0.08,0.03-0.22,0.12-0.21,0.22c0,0.12,0,0.05,0.01,0.17
					c-0.02,0.01-0.02,0-0.03-0.03"/>
				<path class="st2" d="M54.12-48.7c0.02,0.07,0.01,0.13-0.03,0.19c-0.05,0.1-0.11,0.06-0.17,0.13c-0.05,0.06-0.1,0.28-0.08,0.36
					c-0.17,0.06-0.01,0.23-0.02,0.35c0,0.05-0.04,0.11-0.04,0.16c-0.01,0.12,0.02,0.27,0.07,0.37c0.1,0.2,0.27,0.41,0.44,0.54
					c0.19,0.15,0.36,0.57,0.61,0.63c0.18,0.04,0.38-0.1,0.54-0.14c0.18-0.04,0.4,0.01,0.57-0.05c0.22-0.08,0.13-0.34,0.29-0.45
					c0.1-0.07,0.29-0.01,0.41-0.05c0.2-0.07,0.34-0.26,0.38-0.46c0.02-0.08,0.01-0.14,0.04-0.22c0.04-0.1,0.11-0.16,0.09-0.29
					c-0.01-0.06-0.05-0.12-0.06-0.19c-0.02-0.11,0-0.22,0-0.34c0-0.2,0.02-0.38-0.08-0.55c-0.38-0.69-1.24-0.93-1.97-0.79
					c-0.18,0.03-0.29,0.13-0.44,0.21c-0.17,0.09-0.14,0.17-0.32,0.22c-0.08,0.03-0.22,0.12-0.21,0.22c0,0.12,0,0.05,0.01,0.17
					c-0.02,0.01-0.02,0-0.03-0.03"/>
				<path class="st2" d="M46.46-48.7c0.02,0.07,0.01,0.13-0.03,0.19c-0.05,0.1-0.11,0.06-0.16,0.13c-0.05,0.06-0.1,0.28-0.08,0.36
					c-0.17,0.06-0.01,0.23-0.02,0.35c0,0.05-0.04,0.11-0.05,0.16c-0.01,0.12,0.02,0.27,0.07,0.37c0.1,0.2,0.27,0.41,0.44,0.54
					c0.19,0.15,0.36,0.57,0.61,0.63c0.18,0.04,0.38-0.1,0.54-0.14c0.18-0.04,0.4,0.01,0.57-0.05c0.22-0.08,0.13-0.34,0.29-0.45
					c0.1-0.07,0.29-0.01,0.41-0.05c0.2-0.07,0.34-0.26,0.38-0.46c0.02-0.08,0.01-0.14,0.04-0.22c0.04-0.1,0.11-0.16,0.09-0.29
					c-0.01-0.06-0.05-0.12-0.06-0.19c-0.02-0.11,0-0.22,0-0.34c0-0.2,0.02-0.38-0.08-0.55c-0.38-0.69-1.24-0.93-1.97-0.79
					c-0.18,0.03-0.29,0.13-0.44,0.21c-0.17,0.09-0.14,0.17-0.32,0.22c-0.08,0.03-0.22,0.12-0.21,0.22c0,0.12,0,0.05,0.01,0.17
					c-0.02,0.01-0.02,0-0.03-0.03"/>
				<path class="st2" d="M38.8-48.7c0.02,0.07,0.01,0.13-0.03,0.19c-0.05,0.1-0.11,0.06-0.17,0.13c-0.05,0.06-0.1,0.28-0.08,0.36
					c-0.17,0.06-0.01,0.23-0.02,0.35c0,0.05-0.04,0.11-0.04,0.16c-0.01,0.12,0.02,0.27,0.07,0.37c0.1,0.2,0.27,0.41,0.44,0.54
					c0.19,0.15,0.36,0.57,0.61,0.63c0.18,0.04,0.38-0.1,0.54-0.14c0.18-0.04,0.4,0.01,0.57-0.05c0.22-0.08,0.13-0.34,0.29-0.45
					c0.1-0.07,0.29-0.01,0.41-0.05c0.2-0.07,0.34-0.26,0.38-0.46c0.02-0.08,0.01-0.14,0.04-0.22c0.04-0.1,0.11-0.16,0.09-0.29
					c-0.01-0.06-0.05-0.12-0.06-0.19c-0.02-0.11,0-0.22,0-0.34c0-0.2,0.02-0.38-0.08-0.55c-0.38-0.69-1.24-0.93-1.97-0.79
					c-0.18,0.03-0.29,0.13-0.44,0.21c-0.17,0.09-0.14,0.17-0.32,0.22c-0.08,0.03-0.22,0.12-0.21,0.22c0,0.12,0,0.05,0.01,0.17
					c-0.02,0.01-0.02,0-0.03-0.03"/>
				<path class="st2" d="M31.14-48.7c0.02,0.07,0.01,0.13-0.03,0.19c-0.05,0.1-0.11,0.06-0.16,0.13c-0.05,0.06-0.1,0.28-0.08,0.36
					c-0.17,0.06-0.01,0.23-0.02,0.35c0,0.05-0.04,0.11-0.05,0.16c-0.01,0.12,0.02,0.27,0.07,0.37c0.1,0.2,0.27,0.41,0.44,0.54
					c0.19,0.15,0.36,0.57,0.61,0.63c0.18,0.04,0.38-0.1,0.54-0.14c0.18-0.04,0.4,0.01,0.57-0.05c0.22-0.08,0.13-0.34,0.29-0.45
					c0.1-0.07,0.29-0.01,0.41-0.05c0.2-0.07,0.34-0.26,0.38-0.46c0.02-0.08,0.01-0.14,0.04-0.22c0.04-0.1,0.11-0.16,0.09-0.29
					c-0.01-0.06-0.05-0.12-0.06-0.19c-0.02-0.11,0-0.22,0-0.34c0-0.2,0.02-0.38-0.08-0.55c-0.38-0.69-1.24-0.93-1.97-0.79
					c-0.18,0.03-0.29,0.13-0.44,0.21c-0.17,0.09-0.14,0.17-0.32,0.22c-0.08,0.03-0.22,0.12-0.21,0.22c0,0.12,0,0.05,0.01,0.17
					c-0.02,0.01-0.02,0-0.03-0.03"/>
				<path class="st2" d="M23.48-48.7c0.02,0.07,0.01,0.13-0.03,0.19c-0.05,0.1-0.11,0.06-0.17,0.13c-0.05,0.06-0.1,0.28-0.08,0.36
					c-0.17,0.06-0.01,0.23-0.02,0.35c0,0.05-0.04,0.11-0.04,0.16c-0.01,0.12,0.02,0.27,0.07,0.37c0.1,0.2,0.27,0.41,0.44,0.54
					c0.19,0.15,0.36,0.57,0.61,0.63c0.18,0.04,0.38-0.1,0.54-0.14c0.18-0.04,0.4,0.01,0.57-0.05c0.22-0.08,0.13-0.34,0.29-0.45
					c0.1-0.07,0.29-0.01,0.41-0.05c0.2-0.07,0.34-0.26,0.38-0.46c0.02-0.08,0.01-0.14,0.04-0.22c0.04-0.1,0.11-0.16,0.09-0.29
					c-0.01-0.06-0.05-0.12-0.06-0.19c-0.02-0.11,0-0.22,0-0.34c0-0.2,0.02-0.38-0.08-0.55c-0.38-0.69-1.24-0.93-1.97-0.79
					c-0.18,0.03-0.29,0.13-0.44,0.21c-0.17,0.09-0.14,0.17-0.32,0.22c-0.08,0.03-0.22,0.12-0.21,0.22c0,0.12,0,0.05,0.01,0.17
					c-0.02,0.01-0.02,0-0.03-0.03"/>
				<path class="st2" d="M15.82-48.7c0.02,0.07,0.01,0.13-0.03,0.19c-0.05,0.1-0.11,0.06-0.16,0.13c-0.05,0.06-0.1,0.28-0.08,0.36
					c-0.17,0.06-0.01,0.23-0.02,0.35c0,0.05-0.04,0.11-0.05,0.16c-0.01,0.12,0.02,0.27,0.07,0.37c0.1,0.2,0.27,0.41,0.44,0.54
					c0.19,0.15,0.36,0.57,0.61,0.63c0.18,0.04,0.38-0.1,0.54-0.14c0.18-0.04,0.4,0.01,0.57-0.05c0.22-0.08,0.13-0.34,0.29-0.45
					c0.1-0.07,0.29-0.01,0.41-0.05c0.2-0.07,0.34-0.26,0.38-0.46c0.02-0.08,0.01-0.14,0.04-0.22c0.04-0.1,0.11-0.16,0.09-0.29
					c-0.01-0.06-0.05-0.12-0.06-0.19c-0.02-0.11,0-0.22,0-0.34c0-0.2,0.02-0.38-0.08-0.55c-0.38-0.69-1.24-0.93-1.97-0.79
					c-0.18,0.03-0.29,0.13-0.44,0.21c-0.17,0.09-0.14,0.17-0.32,0.22c-0.08,0.03-0.22,0.12-0.21,0.22c0,0.12,0,0.05,0.01,0.17
					c-0.02,0.01-0.02,0-0.03-0.03"/>
				<path class="st2" d="M8.16-48.7c0.02,0.07,0.01,0.13-0.03,0.19c-0.05,0.1-0.11,0.06-0.17,0.13c-0.05,0.06-0.1,0.28-0.08,0.36
					c-0.17,0.06-0.01,0.23-0.02,0.35c0,0.05-0.04,0.11-0.04,0.16c-0.01,0.12,0.02,0.27,0.07,0.37c0.1,0.2,0.27,0.41,0.44,0.54
					c0.19,0.15,0.36,0.57,0.61,0.63c0.18,0.04,0.38-0.1,0.54-0.14c0.18-0.04,0.4,0.01,0.57-0.05c0.22-0.08,0.13-0.34,0.29-0.45
					c0.1-0.07,0.29-0.01,0.41-0.05c0.2-0.07,0.34-0.26,0.38-0.46c0.02-0.08,0.01-0.14,0.04-0.22c0.04-0.1,0.11-0.16,0.09-0.29
					c-0.01-0.06-0.05-0.12-0.06-0.19c-0.02-0.11,0-0.22,0-0.34c0-0.2,0.02-0.38-0.08-0.55c-0.38-0.69-1.24-0.93-1.97-0.79
					c-0.18,0.03-0.29,0.13-0.44,0.21c-0.17,0.09-0.14,0.17-0.32,0.22c-0.08,0.03-0.22,0.12-0.21,0.22c0,0.12,0,0.05,0.01,0.17
					c-0.02,0.01-0.02,0-0.03-0.03"/>
				<path class="st2" d="M0.5-48.7c0.02,0.07,0.01,0.13-0.03,0.19c-0.05,0.1-0.11,0.06-0.17,0.13c-0.05,0.06-0.1,0.28-0.08,0.36
					c-0.17,0.06-0.01,0.23-0.02,0.35c0,0.05-0.04,0.11-0.04,0.16c-0.01,0.12,0.02,0.27,0.07,0.37c0.1,0.2,0.27,0.41,0.44,0.54
					c0.19,0.15,0.36,0.57,0.61,0.63c0.18,0.04,0.38-0.1,0.54-0.14c0.18-0.04,0.4,0.01,0.57-0.05c0.22-0.08,0.13-0.34,0.29-0.45
					c0.1-0.07,0.29-0.01,0.41-0.05c0.2-0.07,0.34-0.26,0.38-0.46c0.02-0.08,0.01-0.14,0.04-0.22c0.04-0.1,0.11-0.16,0.09-0.29
					c-0.01-0.06-0.05-0.12-0.06-0.19c-0.02-0.11,0-0.22,0-0.34c0-0.2,0.02-0.38-0.08-0.55c-0.38-0.69-1.24-0.93-1.97-0.79
					c-0.18,0.03-0.29,0.13-0.44,0.21c-0.17,0.09-0.14,0.17-0.32,0.22c-0.08,0.03-0.22,0.12-0.21,0.22c0,0.12,0,0.05,0.01,0.17
					c-0.02,0.01-0.02,0-0.03-0.03"/>
			</g>
			<g>
				<path class="st2" d="M69.44-41.04c0.02,0.07,0.01,0.13-0.03,0.19c-0.05,0.1-0.11,0.06-0.17,0.13c-0.05,0.06-0.1,0.28-0.08,0.36
					c-0.17,0.06-0.01,0.23-0.02,0.35c0,0.05-0.04,0.11-0.04,0.16c-0.01,0.12,0.02,0.27,0.07,0.37c0.1,0.2,0.27,0.41,0.43,0.54
					c0.19,0.15,0.36,0.57,0.61,0.63c0.18,0.04,0.38-0.1,0.54-0.14c0.18-0.04,0.4,0.01,0.57-0.05c0.22-0.08,0.13-0.34,0.29-0.45
					c0.1-0.07,0.29-0.01,0.41-0.05c0.2-0.07,0.34-0.26,0.38-0.46c0.02-0.08,0.01-0.14,0.04-0.22c0.04-0.1,0.11-0.16,0.09-0.29
					c-0.01-0.06-0.05-0.12-0.06-0.19c-0.02-0.11,0-0.22,0-0.34c0-0.2,0.02-0.38-0.08-0.55c-0.38-0.69-1.24-0.93-1.97-0.79
					c-0.18,0.03-0.29,0.13-0.44,0.21c-0.17,0.09-0.14,0.17-0.32,0.22c-0.08,0.03-0.22,0.12-0.21,0.22c0,0.12,0,0.05,0.01,0.17
					c-0.02,0.01-0.02,0-0.03-0.03"/>
				<path class="st2" d="M61.78-41.04c0.02,0.07,0.01,0.13-0.03,0.19c-0.05,0.1-0.11,0.06-0.17,0.13c-0.05,0.06-0.1,0.28-0.08,0.36
					c-0.17,0.06-0.01,0.23-0.02,0.35c0,0.05-0.04,0.11-0.04,0.16c-0.01,0.12,0.02,0.27,0.07,0.37c0.1,0.2,0.27,0.41,0.44,0.54
					c0.19,0.15,0.36,0.57,0.61,0.63c0.18,0.04,0.38-0.1,0.54-0.14c0.18-0.04,0.4,0.01,0.57-0.05c0.22-0.08,0.13-0.34,0.29-0.45
					c0.1-0.07,0.29-0.01,0.41-0.05c0.2-0.07,0.34-0.26,0.38-0.46c0.02-0.08,0.01-0.14,0.04-0.22c0.04-0.1,0.11-0.16,0.09-0.29
					c-0.01-0.06-0.05-0.12-0.06-0.19c-0.02-0.11,0-0.22,0-0.34c0-0.2,0.02-0.38-0.08-0.55c-0.38-0.69-1.24-0.93-1.97-0.79
					c-0.18,0.03-0.29,0.13-0.44,0.21c-0.17,0.09-0.14,0.17-0.32,0.22c-0.08,0.03-0.22,0.12-0.21,0.22c0,0.12,0,0.05,0.01,0.17
					c-0.02,0.01-0.02,0-0.03-0.03"/>
				<path class="st2" d="M54.12-41.04c0.02,0.07,0.01,0.13-0.03,0.19c-0.05,0.1-0.11,0.06-0.17,0.13c-0.05,0.06-0.1,0.28-0.08,0.36
					c-0.17,0.06-0.01,0.23-0.02,0.35c0,0.05-0.04,0.11-0.04,0.16c-0.01,0.12,0.02,0.27,0.07,0.37c0.1,0.2,0.27,0.41,0.44,0.54
					c0.19,0.15,0.36,0.57,0.61,0.63c0.18,0.04,0.38-0.1,0.54-0.14c0.18-0.04,0.4,0.01,0.57-0.05c0.22-0.08,0.13-0.34,0.29-0.45
					c0.1-0.07,0.29-0.01,0.41-0.05c0.2-0.07,0.34-0.26,0.38-0.46c0.02-0.08,0.01-0.14,0.04-0.22c0.04-0.1,0.11-0.16,0.09-0.29
					c-0.01-0.06-0.05-0.12-0.06-0.19c-0.02-0.11,0-0.22,0-0.34c0-0.2,0.02-0.38-0.08-0.55c-0.38-0.69-1.24-0.93-1.97-0.79
					c-0.18,0.03-0.29,0.13-0.44,0.21c-0.17,0.09-0.14,0.17-0.32,0.22c-0.08,0.03-0.22,0.12-0.21,0.22c0,0.12,0,0.05,0.01,0.17
					c-0.02,0.01-0.02,0-0.03-0.03"/>
				<path class="st2" d="M46.46-41.04c0.02,0.07,0.01,0.13-0.03,0.19c-0.05,0.1-0.11,0.06-0.16,0.13c-0.05,0.06-0.1,0.28-0.08,0.36
					c-0.17,0.06-0.01,0.23-0.02,0.35c0,0.05-0.04,0.11-0.05,0.16c-0.01,0.12,0.02,0.27,0.07,0.37c0.1,0.2,0.27,0.41,0.44,0.54
					c0.19,0.15,0.36,0.57,0.61,0.63c0.18,0.04,0.38-0.1,0.54-0.14c0.18-0.04,0.4,0.01,0.57-0.05c0.22-0.08,0.13-0.34,0.29-0.45
					c0.1-0.07,0.29-0.01,0.41-0.05c0.2-0.07,0.34-0.26,0.38-0.46c0.02-0.08,0.01-0.14,0.04-0.22c0.04-0.1,0.11-0.16,0.09-0.29
					c-0.01-0.06-0.05-0.12-0.06-0.19c-0.02-0.11,0-0.22,0-0.34c0-0.2,0.02-0.38-0.08-0.55c-0.38-0.69-1.24-0.93-1.97-0.79
					c-0.18,0.03-0.29,0.13-0.44,0.21c-0.17,0.09-0.14,0.17-0.32,0.22c-0.08,0.03-0.22,0.12-0.21,0.22c0,0.12,0,0.05,0.01,0.17
					c-0.02,0.01-0.02,0-0.03-0.03"/>
				<path class="st2" d="M38.8-41.04c0.02,0.07,0.01,0.13-0.03,0.19c-0.05,0.1-0.11,0.06-0.17,0.13c-0.05,0.06-0.1,0.28-0.08,0.36
					c-0.17,0.06-0.01,0.23-0.02,0.35c0,0.05-0.04,0.11-0.04,0.16c-0.01,0.12,0.02,0.27,0.07,0.37c0.1,0.2,0.27,0.41,0.44,0.54
					c0.19,0.15,0.36,0.57,0.61,0.63c0.18,0.04,0.38-0.1,0.54-0.14c0.18-0.04,0.4,0.01,0.57-0.05c0.22-0.08,0.13-0.34,0.29-0.45
					c0.1-0.07,0.29-0.01,0.41-0.05c0.2-0.07,0.34-0.26,0.38-0.46c0.02-0.08,0.01-0.14,0.04-0.22c0.04-0.1,0.11-0.16,0.09-0.29
					c-0.01-0.06-0.05-0.12-0.06-0.19c-0.02-0.11,0-0.22,0-0.34c0-0.2,0.02-0.38-0.08-0.55c-0.38-0.69-1.24-0.93-1.97-0.79
					c-0.18,0.03-0.29,0.13-0.44,0.21c-0.17,0.09-0.14,0.17-0.32,0.22c-0.08,0.03-0.22,0.12-0.21,0.22c0,0.12,0,0.05,0.01,0.17
					c-0.02,0.01-0.02,0-0.03-0.03"/>
				<path class="st2" d="M31.14-41.04c0.02,0.07,0.01,0.13-0.03,0.19c-0.05,0.1-0.11,0.06-0.16,0.13c-0.05,0.06-0.1,0.28-0.08,0.36
					c-0.17,0.06-0.01,0.23-0.02,0.35c0,0.05-0.04,0.11-0.05,0.16c-0.01,0.12,0.02,0.27,0.07,0.37c0.1,0.2,0.27,0.41,0.44,0.54
					c0.19,0.15,0.36,0.57,0.61,0.63c0.18,0.04,0.38-0.1,0.54-0.14c0.18-0.04,0.4,0.01,0.57-0.05c0.22-0.08,0.13-0.34,0.29-0.45
					c0.1-0.07,0.29-0.01,0.41-0.05c0.2-0.07,0.34-0.26,0.38-0.46c0.02-0.08,0.01-0.14,0.04-0.22c0.04-0.1,0.11-0.16,0.09-0.29
					c-0.01-0.06-0.05-0.12-0.06-0.19c-0.02-0.11,0-0.22,0-0.34c0-0.2,0.02-0.38-0.08-0.55c-0.38-0.69-1.24-0.93-1.97-0.79
					c-0.18,0.03-0.29,0.13-0.44,0.21c-0.17,0.09-0.14,0.17-0.32,0.22c-0.08,0.03-0.22,0.12-0.21,0.22c0,0.12,0,0.05,0.01,0.17
					c-0.02,0.01-0.02,0-0.03-0.03"/>
				<path class="st2" d="M23.48-41.04c0.02,0.07,0.01,0.13-0.03,0.19c-0.05,0.1-0.11,0.06-0.17,0.13c-0.05,0.06-0.1,0.28-0.08,0.36
					c-0.17,0.06-0.01,0.23-0.02,0.35c0,0.05-0.04,0.11-0.04,0.16c-0.01,0.12,0.02,0.27,0.07,0.37c0.1,0.2,0.27,0.41,0.44,0.54
					c0.19,0.15,0.36,0.57,0.61,0.63c0.18,0.04,0.38-0.1,0.54-0.14c0.18-0.04,0.4,0.01,0.57-0.05c0.22-0.08,0.13-0.34,0.29-0.45
					c0.1-0.07,0.29-0.01,0.41-0.05c0.2-0.07,0.34-0.26,0.38-0.46c0.02-0.08,0.01-0.14,0.04-0.22c0.04-0.1,0.11-0.16,0.09-0.29
					c-0.01-0.06-0.05-0.12-0.06-0.19c-0.02-0.11,0-0.22,0-0.34c0-0.2,0.02-0.38-0.08-0.55c-0.38-0.69-1.24-0.93-1.97-0.79
					c-0.18,0.03-0.29,0.13-0.44,0.21c-0.17,0.09-0.14,0.17-0.32,0.22c-0.08,0.03-0.22,0.12-0.21,0.22c0,0.12,0,0.05,0.01,0.17
					c-0.02,0.01-0.02,0-0.03-0.03"/>
				<path class="st2" d="M15.82-41.04c0.02,0.07,0.01,0.13-0.03,0.19c-0.05,0.1-0.11,0.06-0.16,0.13c-0.05,0.06-0.1,0.28-0.08,0.36
					c-0.17,0.06-0.01,0.23-0.02,0.35c0,0.05-0.04,0.11-0.05,0.16c-0.01,0.12,0.02,0.27,0.07,0.37c0.1,0.2,0.27,0.41,0.44,0.54
					c0.19,0.15,0.36,0.57,0.61,0.63c0.18,0.04,0.38-0.1,0.54-0.14c0.18-0.04,0.4,0.01,0.57-0.05c0.22-0.08,0.13-0.34,0.29-0.45
					c0.1-0.07,0.29-0.01,0.41-0.05c0.2-0.07,0.34-0.26,0.38-0.46c0.02-0.08,0.01-0.14,0.04-0.22c0.04-0.1,0.11-0.16,0.09-0.29
					c-0.01-0.06-0.05-0.12-0.06-0.19c-0.02-0.11,0-0.22,0-0.34c0-0.2,0.02-0.38-0.08-0.55c-0.38-0.69-1.24-0.93-1.97-0.79
					c-0.18,0.03-0.29,0.13-0.44,0.21c-0.17,0.09-0.14,0.17-0.32,0.22c-0.08,0.03-0.22,0.12-0.21,0.22c0,0.12,0,0.05,0.01,0.17
					c-0.02,0.01-0.02,0-0.03-0.03"/>
				<path class="st2" d="M8.16-41.04c0.02,0.07,0.01,0.13-0.03,0.19c-0.05,0.1-0.11,0.06-0.17,0.13c-0.05,0.06-0.1,0.28-0.08,0.36
					c-0.17,0.06-0.01,0.23-0.02,0.35c0,0.05-0.04,0.11-0.04,0.16c-0.01,0.12,0.02,0.27,0.07,0.37c0.1,0.2,0.27,0.41,0.44,0.54
					c0.19,0.15,0.36,0.57,0.61,0.63c0.18,0.04,0.38-0.1,0.54-0.14c0.18-0.04,0.4,0.01,0.57-0.05c0.22-0.08,0.13-0.34,0.29-0.45
					c0.1-0.07,0.29-0.01,0.41-0.05c0.2-0.07,0.34-0.26,0.38-0.46c0.02-0.08,0.01-0.14,0.04-0.22c0.04-0.1,0.11-0.16,0.09-0.29
					c-0.01-0.06-0.05-0.12-0.06-0.19c-0.02-0.11,0-0.22,0-0.34c0-0.2,0.02-0.38-0.08-0.55c-0.38-0.69-1.24-0.93-1.97-0.79
					c-0.18,0.03-0.29,0.13-0.44,0.21c-0.17,0.09-0.14,0.17-0.32,0.22c-0.08,0.03-0.22,0.12-0.21,0.22c0,0.12,0,0.05,0.01,0.17
					c-0.02,0.01-0.02,0-0.03-0.03"/>
				<path class="st2" d="M0.5-41.04c0.02,0.07,0.01,0.13-0.03,0.19c-0.05,0.1-0.11,0.06-0.17,0.13c-0.05,0.06-0.1,0.28-0.08,0.36
					c-0.17,0.06-0.01,0.23-0.02,0.35c0,0.05-0.04,0.11-0.04,0.16c-0.01,0.12,0.02,0.27,0.07,0.37c0.1,0.2,0.27,0.41,0.44,0.54
					c0.19,0.15,0.36,0.57,0.61,0.63c0.18,0.04,0.38-0.1,0.54-0.14c0.18-0.04,0.4,0.01,0.57-0.05c0.22-0.08,0.13-0.34,0.29-0.45
					c0.1-0.07,0.29-0.01,0.41-0.05c0.2-0.07,0.34-0.26,0.38-0.46c0.02-0.08,0.01-0.14,0.04-0.22c0.04-0.1,0.11-0.16,0.09-0.29
					c-0.01-0.06-0.05-0.12-0.06-0.19c-0.02-0.11,0-0.22,0-0.34c0-0.2,0.02-0.38-0.08-0.55c-0.38-0.69-1.24-0.93-1.97-0.79
					c-0.18,0.03-0.29,0.13-0.44,0.21c-0.17,0.09-0.14,0.17-0.32,0.22c-0.08,0.03-0.22,0.12-0.21,0.22c0,0.12,0,0.05,0.01,0.17
					c-0.02,0.01-0.02,0-0.03-0.03"/>
			</g>
			<g>
				<path class="st2" d="M69.44-33.39c0.02,0.07,0.01,0.13-0.03,0.19c-0.05,0.1-0.11,0.06-0.17,0.13c-0.05,0.06-0.1,0.28-0.08,0.36
					c-0.17,0.06-0.01,0.23-0.02,0.35c0,0.05-0.04,0.11-0.04,0.16c-0.01,0.12,0.02,0.27,0.07,0.37c0.1,0.2,0.27,0.41,0.43,0.54
					c0.19,0.15,0.36,0.57,0.61,0.63c0.18,0.04,0.38-0.1,0.54-0.14c0.18-0.04,0.4,0.01,0.57-0.05c0.22-0.08,0.13-0.34,0.29-0.45
					c0.1-0.07,0.29-0.01,0.41-0.05c0.2-0.07,0.34-0.26,0.38-0.46c0.02-0.08,0.01-0.14,0.04-0.22c0.04-0.1,0.11-0.16,0.09-0.29
					c-0.01-0.06-0.05-0.12-0.06-0.19c-0.02-0.11,0-0.22,0-0.34c0-0.2,0.02-0.38-0.08-0.55c-0.38-0.69-1.24-0.93-1.97-0.79
					c-0.18,0.03-0.29,0.13-0.44,0.21c-0.17,0.09-0.14,0.17-0.32,0.22c-0.08,0.03-0.22,0.12-0.21,0.22c0,0.12,0,0.05,0.01,0.17
					c-0.02,0.01-0.02,0-0.03-0.03"/>
				<path class="st2" d="M61.78-33.39c0.02,0.07,0.01,0.13-0.03,0.19c-0.05,0.1-0.11,0.06-0.17,0.13c-0.05,0.06-0.1,0.28-0.08,0.36
					c-0.17,0.06-0.01,0.23-0.02,0.35c0,0.05-0.04,0.11-0.04,0.16c-0.01,0.12,0.02,0.27,0.07,0.37c0.1,0.2,0.27,0.41,0.44,0.54
					c0.19,0.15,0.36,0.57,0.61,0.63c0.18,0.04,0.38-0.1,0.54-0.14c0.18-0.04,0.4,0.01,0.57-0.05c0.22-0.08,0.13-0.34,0.29-0.45
					c0.1-0.07,0.29-0.01,0.41-0.05c0.2-0.07,0.34-0.26,0.38-0.46c0.02-0.08,0.01-0.14,0.04-0.22c0.04-0.1,0.11-0.16,0.09-0.29
					c-0.01-0.06-0.05-0.12-0.06-0.19c-0.02-0.11,0-0.22,0-0.34c0-0.2,0.02-0.38-0.08-0.55c-0.38-0.69-1.24-0.93-1.97-0.79
					c-0.18,0.03-0.29,0.13-0.44,0.21c-0.17,0.09-0.14,0.17-0.32,0.22c-0.08,0.03-0.22,0.12-0.21,0.22c0,0.12,0,0.05,0.01,0.17
					c-0.02,0.01-0.02,0-0.03-0.03"/>
				<path class="st2" d="M54.12-33.39c0.02,0.07,0.01,0.13-0.03,0.19c-0.05,0.1-0.11,0.06-0.17,0.13c-0.05,0.06-0.1,0.28-0.08,0.36
					c-0.17,0.06-0.01,0.23-0.02,0.35c0,0.05-0.04,0.11-0.04,0.16c-0.01,0.12,0.02,0.27,0.07,0.37c0.1,0.2,0.27,0.41,0.44,0.54
					c0.19,0.15,0.36,0.57,0.61,0.63c0.18,0.04,0.38-0.1,0.54-0.14c0.18-0.04,0.4,0.01,0.57-0.05c0.22-0.08,0.13-0.34,0.29-0.45
					c0.1-0.07,0.29-0.01,0.41-0.05c0.2-0.07,0.34-0.26,0.38-0.46c0.02-0.08,0.01-0.14,0.04-0.22c0.04-0.1,0.11-0.16,0.09-0.29
					c-0.01-0.06-0.05-0.12-0.06-0.19c-0.02-0.11,0-0.22,0-0.34c0-0.2,0.02-0.38-0.08-0.55c-0.38-0.69-1.24-0.93-1.97-0.79
					c-0.18,0.03-0.29,0.13-0.44,0.21c-0.17,0.09-0.14,0.17-0.32,0.22c-0.08,0.03-0.22,0.12-0.21,0.22c0,0.12,0,0.05,0.01,0.17
					c-0.02,0.01-0.02,0-0.03-0.03"/>
				<path class="st2" d="M46.46-33.39c0.02,0.07,0.01,0.13-0.03,0.19c-0.05,0.1-0.11,0.06-0.16,0.13c-0.05,0.06-0.1,0.28-0.08,0.36
					c-0.17,0.06-0.01,0.23-0.02,0.35c0,0.05-0.04,0.11-0.05,0.16c-0.01,0.12,0.02,0.27,0.07,0.37c0.1,0.2,0.27,0.41,0.44,0.54
					c0.19,0.15,0.36,0.57,0.61,0.63c0.18,0.04,0.38-0.1,0.54-0.14c0.18-0.04,0.4,0.01,0.57-0.05c0.22-0.08,0.13-0.34,0.29-0.45
					c0.1-0.07,0.29-0.01,0.41-0.05c0.2-0.07,0.34-0.26,0.38-0.46c0.02-0.08,0.01-0.14,0.04-0.22c0.04-0.1,0.11-0.16,0.09-0.29
					c-0.01-0.06-0.05-0.12-0.06-0.19c-0.02-0.11,0-0.22,0-0.34c0-0.2,0.02-0.38-0.08-0.55c-0.38-0.69-1.24-0.93-1.97-0.79
					c-0.18,0.03-0.29,0.13-0.44,0.21c-0.17,0.09-0.14,0.17-0.32,0.22c-0.08,0.03-0.22,0.12-0.21,0.22c0,0.12,0,0.05,0.01,0.17
					c-0.02,0.01-0.02,0-0.03-0.03"/>
				<path class="st2" d="M38.8-33.39c0.02,0.07,0.01,0.13-0.03,0.19c-0.05,0.1-0.11,0.06-0.17,0.13c-0.05,0.06-0.1,0.28-0.08,0.36
					c-0.17,0.06-0.01,0.23-0.02,0.35c0,0.05-0.04,0.11-0.04,0.16c-0.01,0.12,0.02,0.27,0.07,0.37c0.1,0.2,0.27,0.41,0.44,0.54
					c0.19,0.15,0.36,0.57,0.61,0.63c0.18,0.04,0.38-0.1,0.54-0.14c0.18-0.04,0.4,0.01,0.57-0.05c0.22-0.08,0.13-0.34,0.29-0.45
					c0.1-0.07,0.29-0.01,0.41-0.05c0.2-0.07,0.34-0.26,0.38-0.46c0.02-0.08,0.01-0.14,0.04-0.22c0.04-0.1,0.11-0.16,0.09-0.29
					c-0.01-0.06-0.05-0.12-0.06-0.19c-0.02-0.11,0-0.22,0-0.34c0-0.2,0.02-0.38-0.08-0.55c-0.38-0.69-1.24-0.93-1.97-0.79
					c-0.18,0.03-0.29,0.13-0.44,0.21c-0.17,0.09-0.14,0.17-0.32,0.22c-0.08,0.03-0.22,0.12-0.21,0.22c0,0.12,0,0.05,0.01,0.17
					c-0.02,0.01-0.02,0-0.03-0.03"/>
				<path class="st2" d="M31.14-33.39c0.02,0.07,0.01,0.13-0.03,0.19c-0.05,0.1-0.11,0.06-0.16,0.13c-0.05,0.06-0.1,0.28-0.08,0.36
					c-0.17,0.06-0.01,0.23-0.02,0.35c0,0.05-0.04,0.11-0.05,0.16c-0.01,0.12,0.02,0.27,0.07,0.37c0.1,0.2,0.27,0.41,0.44,0.54
					c0.19,0.15,0.36,0.57,0.61,0.63c0.18,0.04,0.38-0.1,0.54-0.14c0.18-0.04,0.4,0.01,0.57-0.05c0.22-0.08,0.13-0.34,0.29-0.45
					c0.1-0.07,0.29-0.01,0.41-0.05c0.2-0.07,0.34-0.26,0.38-0.46c0.02-0.08,0.01-0.14,0.04-0.22c0.04-0.1,0.11-0.16,0.09-0.29
					c-0.01-0.06-0.05-0.12-0.06-0.19c-0.02-0.11,0-0.22,0-0.34c0-0.2,0.02-0.38-0.08-0.55c-0.38-0.69-1.24-0.93-1.97-0.79
					c-0.18,0.03-0.29,0.13-0.44,0.21c-0.17,0.09-0.14,0.17-0.32,0.22c-0.08,0.03-0.22,0.12-0.21,0.22c0,0.12,0,0.05,0.01,0.17
					c-0.02,0.01-0.02,0-0.03-0.03"/>
				<path class="st2" d="M23.48-33.39c0.02,0.07,0.01,0.13-0.03,0.19c-0.05,0.1-0.11,0.06-0.17,0.13c-0.05,0.06-0.1,0.28-0.08,0.36
					c-0.17,0.06-0.01,0.23-0.02,0.35c0,0.05-0.04,0.11-0.04,0.16c-0.01,0.12,0.02,0.27,0.07,0.37c0.1,0.2,0.27,0.41,0.44,0.54
					c0.19,0.15,0.36,0.57,0.61,0.63c0.18,0.04,0.38-0.1,0.54-0.14c0.18-0.04,0.4,0.01,0.57-0.05c0.22-0.08,0.13-0.34,0.29-0.45
					c0.1-0.07,0.29-0.01,0.41-0.05c0.2-0.07,0.34-0.26,0.38-0.46c0.02-0.08,0.01-0.14,0.04-0.22c0.04-0.1,0.11-0.16,0.09-0.29
					c-0.01-0.06-0.05-0.12-0.06-0.19c-0.02-0.11,0-0.22,0-0.34c0-0.2,0.02-0.38-0.08-0.55c-0.38-0.69-1.24-0.93-1.97-0.79
					c-0.18,0.03-0.29,0.13-0.44,0.21c-0.17,0.09-0.14,0.17-0.32,0.22c-0.08,0.03-0.22,0.12-0.21,0.22c0,0.12,0,0.05,0.01,0.17
					c-0.02,0.01-0.02,0-0.03-0.03"/>
				<path class="st2" d="M15.82-33.39c0.02,0.07,0.01,0.13-0.03,0.19c-0.05,0.1-0.11,0.06-0.16,0.13c-0.05,0.06-0.1,0.28-0.08,0.36
					c-0.17,0.06-0.01,0.23-0.02,0.35c0,0.05-0.04,0.11-0.05,0.16c-0.01,0.12,0.02,0.27,0.07,0.37c0.1,0.2,0.27,0.41,0.44,0.54
					c0.19,0.15,0.36,0.57,0.61,0.63c0.18,0.04,0.38-0.1,0.54-0.14c0.18-0.04,0.4,0.01,0.57-0.05c0.22-0.08,0.13-0.34,0.29-0.45
					c0.1-0.07,0.29-0.01,0.41-0.05c0.2-0.07,0.34-0.26,0.38-0.46c0.02-0.08,0.01-0.14,0.04-0.22c0.04-0.1,0.11-0.16,0.09-0.29
					c-0.01-0.06-0.05-0.12-0.06-0.19c-0.02-0.11,0-0.22,0-0.34c0-0.2,0.02-0.38-0.08-0.55c-0.38-0.69-1.24-0.93-1.97-0.79
					c-0.18,0.03-0.29,0.13-0.44,0.21c-0.17,0.09-0.14,0.17-0.32,0.22c-0.08,0.03-0.22,0.12-0.21,0.22c0,0.12,0,0.05,0.01,0.17
					c-0.02,0.01-0.02,0-0.03-0.03"/>
				<path class="st2" d="M8.16-33.39c0.02,0.07,0.01,0.13-0.03,0.19c-0.05,0.1-0.11,0.06-0.17,0.13c-0.05,0.06-0.1,0.28-0.08,0.36
					c-0.17,0.06-0.01,0.23-0.02,0.35c0,0.05-0.04,0.11-0.04,0.16c-0.01,0.12,0.02,0.27,0.07,0.37c0.1,0.2,0.27,0.41,0.44,0.54
					c0.19,0.15,0.36,0.57,0.61,0.63c0.18,0.04,0.38-0.1,0.54-0.14c0.18-0.04,0.4,0.01,0.57-0.05c0.22-0.08,0.13-0.34,0.29-0.45
					c0.1-0.07,0.29-0.01,0.41-0.05c0.2-0.07,0.34-0.26,0.38-0.46c0.02-0.08,0.01-0.14,0.04-0.22c0.04-0.1,0.11-0.16,0.09-0.29
					c-0.01-0.06-0.05-0.12-0.06-0.19c-0.02-0.11,0-0.22,0-0.34c0-0.2,0.02-0.38-0.08-0.55c-0.38-0.69-1.24-0.93-1.97-0.79
					c-0.18,0.03-0.29,0.13-0.44,0.21c-0.17,0.09-0.14,0.17-0.32,0.22c-0.08,0.03-0.22,0.12-0.21,0.22c0,0.12,0,0.05,0.01,0.17
					c-0.02,0.01-0.02,0-0.03-0.03"/>
				<path class="st2" d="M0.5-33.39c0.02,0.07,0.01,0.13-0.03,0.19c-0.05,0.1-0.11,0.06-0.17,0.13c-0.05,0.06-0.1,0.28-0.08,0.36
					c-0.17,0.06-0.01,0.23-0.02,0.35c0,0.05-0.04,0.11-0.04,0.16c-0.01,0.12,0.02,0.27,0.07,0.37c0.1,0.2,0.27,0.41,0.44,0.54
					c0.19,0.15,0.36,0.57,0.61,0.63c0.18,0.04,0.38-0.1,0.54-0.14c0.18-0.04,0.4,0.01,0.57-0.05c0.22-0.08,0.13-0.34,0.29-0.45
					c0.1-0.07,0.29-0.01,0.41-0.05c0.2-0.07,0.34-0.26,0.38-0.46c0.02-0.08,0.01-0.14,0.04-0.22c0.04-0.1,0.11-0.16,0.09-0.29
					c-0.01-0.06-0.05-0.12-0.06-0.19c-0.02-0.11,0-0.22,0-0.34c0-0.2,0.02-0.38-0.08-0.55c-0.38-0.69-1.24-0.93-1.97-0.79
					c-0.18,0.03-0.29,0.13-0.44,0.21c-0.17,0.09-0.14,0.17-0.32,0.22c-0.08,0.03-0.22,0.12-0.21,0.22c0,0.12,0,0.05,0.01,0.17
					c-0.02,0.01-0.02,0-0.03-0.03"/>
			</g>
			<g>
				<path class="st2" d="M69.44-25.74c0.02,0.07,0.01,0.13-0.03,0.19c-0.05,0.1-0.11,0.06-0.17,0.13c-0.05,0.06-0.1,0.28-0.08,0.36
					C69-25,69.16-24.83,69.15-24.71c0,0.05-0.04,0.11-0.04,0.16c-0.01,0.12,0.02,0.27,0.07,0.37c0.1,0.2,0.27,0.41,0.43,0.54
					c0.19,0.15,0.36,0.57,0.61,0.63c0.18,0.04,0.38-0.1,0.54-0.14c0.18-0.04,0.4,0.01,0.57-0.05c0.22-0.08,0.13-0.34,0.29-0.45
					c0.1-0.07,0.29-0.01,0.41-0.05c0.2-0.07,0.34-0.26,0.38-0.46c0.02-0.08,0.01-0.14,0.04-0.22c0.04-0.1,0.11-0.16,0.09-0.29
					c-0.01-0.06-0.05-0.12-0.06-0.19c-0.02-0.11,0-0.22,0-0.34c0-0.2,0.02-0.38-0.08-0.55c-0.38-0.69-1.24-0.93-1.97-0.79
					c-0.18,0.03-0.29,0.13-0.44,0.21c-0.17,0.09-0.14,0.17-0.32,0.22c-0.08,0.03-0.22,0.12-0.21,0.22c0,0.12,0,0.05,0.01,0.17
					c-0.02,0.01-0.02,0-0.03-0.03"/>
				<path class="st2" d="M61.78-25.74c0.02,0.07,0.01,0.13-0.03,0.19c-0.05,0.1-0.11,0.06-0.17,0.13c-0.05,0.06-0.1,0.28-0.08,0.36
					c-0.17,0.06-0.01,0.23-0.02,0.35c0,0.05-0.04,0.11-0.04,0.16c-0.01,0.12,0.02,0.27,0.07,0.37c0.1,0.2,0.27,0.41,0.44,0.54
					c0.19,0.15,0.36,0.57,0.61,0.63c0.18,0.04,0.38-0.1,0.54-0.14c0.18-0.04,0.4,0.01,0.57-0.05c0.22-0.08,0.13-0.34,0.29-0.45
					c0.1-0.07,0.29-0.01,0.41-0.05c0.2-0.07,0.34-0.26,0.38-0.46c0.02-0.08,0.01-0.14,0.04-0.22c0.04-0.1,0.11-0.16,0.09-0.29
					c-0.01-0.06-0.05-0.12-0.06-0.19c-0.02-0.11,0-0.22,0-0.34c0-0.2,0.02-0.38-0.08-0.55c-0.38-0.69-1.24-0.93-1.97-0.79
					c-0.18,0.03-0.29,0.13-0.44,0.21c-0.17,0.09-0.14,0.17-0.32,0.22c-0.08,0.03-0.22,0.12-0.21,0.22c0,0.12,0,0.05,0.01,0.17
					c-0.02,0.01-0.02,0-0.03-0.03"/>
				<path class="st2" d="M54.12-25.74c0.02,0.07,0.01,0.13-0.03,0.19c-0.05,0.1-0.11,0.06-0.17,0.13c-0.05,0.06-0.1,0.28-0.08,0.36
					c-0.17,0.06-0.01,0.23-0.02,0.35c0,0.05-0.04,0.11-0.04,0.16c-0.01,0.12,0.02,0.27,0.07,0.37c0.1,0.2,0.27,0.41,0.44,0.54
					c0.19,0.15,0.36,0.57,0.61,0.63c0.18,0.04,0.38-0.1,0.54-0.14c0.18-0.04,0.4,0.01,0.57-0.05c0.22-0.08,0.13-0.34,0.29-0.45
					c0.1-0.07,0.29-0.01,0.41-0.05c0.2-0.07,0.34-0.26,0.38-0.46c0.02-0.08,0.01-0.14,0.04-0.22c0.04-0.1,0.11-0.16,0.09-0.29
					c-0.01-0.06-0.05-0.12-0.06-0.19c-0.02-0.11,0-0.22,0-0.34c0-0.2,0.02-0.38-0.08-0.55c-0.38-0.69-1.24-0.93-1.97-0.79
					c-0.18,0.03-0.29,0.13-0.44,0.21c-0.17,0.09-0.14,0.17-0.32,0.22c-0.08,0.03-0.22,0.12-0.21,0.22c0,0.12,0,0.05,0.01,0.17
					c-0.02,0.01-0.02,0-0.03-0.03"/>
				<path class="st2" d="M46.46-25.74c0.02,0.07,0.01,0.13-0.03,0.19c-0.05,0.1-0.11,0.06-0.16,0.13c-0.05,0.06-0.1,0.28-0.08,0.36
					c-0.17,0.06-0.01,0.23-0.02,0.35c0,0.05-0.04,0.11-0.05,0.16c-0.01,0.12,0.02,0.27,0.07,0.37c0.1,0.2,0.27,0.41,0.44,0.54
					c0.19,0.15,0.36,0.57,0.61,0.63c0.18,0.04,0.38-0.1,0.54-0.14c0.18-0.04,0.4,0.01,0.57-0.05c0.22-0.08,0.13-0.34,0.29-0.45
					c0.1-0.07,0.29-0.01,0.41-0.05c0.2-0.07,0.34-0.26,0.38-0.46c0.02-0.08,0.01-0.14,0.04-0.22c0.04-0.1,0.11-0.16,0.09-0.29
					c-0.01-0.06-0.05-0.12-0.06-0.19c-0.02-0.11,0-0.22,0-0.34c0-0.2,0.02-0.38-0.08-0.55c-0.38-0.69-1.24-0.93-1.97-0.79
					c-0.18,0.03-0.29,0.13-0.44,0.21c-0.17,0.09-0.14,0.17-0.32,0.22c-0.08,0.03-0.22,0.12-0.21,0.22c0,0.12,0,0.05,0.01,0.17
					c-0.02,0.01-0.02,0-0.03-0.03"/>
				<path class="st2" d="M38.8-25.74c0.02,0.07,0.01,0.13-0.03,0.19c-0.05,0.1-0.11,0.06-0.17,0.13c-0.05,0.06-0.1,0.28-0.08,0.36
					c-0.17,0.06-0.01,0.23-0.02,0.35c0,0.05-0.04,0.11-0.04,0.16c-0.01,0.12,0.02,0.27,0.07,0.37c0.1,0.2,0.27,0.41,0.44,0.54
					c0.19,0.15,0.36,0.57,0.61,0.63c0.18,0.04,0.38-0.1,0.54-0.14c0.18-0.04,0.4,0.01,0.57-0.05c0.22-0.08,0.13-0.34,0.29-0.45
					c0.1-0.07,0.29-0.01,0.41-0.05c0.2-0.07,0.34-0.26,0.38-0.46c0.02-0.08,0.01-0.14,0.04-0.22c0.04-0.1,0.11-0.16,0.09-0.29
					c-0.01-0.06-0.05-0.12-0.06-0.19c-0.02-0.11,0-0.22,0-0.34c0-0.2,0.02-0.38-0.08-0.55c-0.38-0.69-1.24-0.93-1.97-0.79
					c-0.18,0.03-0.29,0.13-0.44,0.21c-0.17,0.09-0.14,0.17-0.32,0.22c-0.08,0.03-0.22,0.12-0.21,0.22c0,0.12,0,0.05,0.01,0.17
					c-0.02,0.01-0.02,0-0.03-0.03"/>
				<path class="st2" d="M31.14-25.74c0.02,0.07,0.01,0.13-0.03,0.19c-0.05,0.1-0.11,0.06-0.16,0.13c-0.05,0.06-0.1,0.28-0.08,0.36
					c-0.17,0.06-0.01,0.23-0.02,0.35c0,0.05-0.04,0.11-0.05,0.16c-0.01,0.12,0.02,0.27,0.07,0.37c0.1,0.2,0.27,0.41,0.44,0.54
					c0.19,0.15,0.36,0.57,0.61,0.63c0.18,0.04,0.38-0.1,0.54-0.14c0.18-0.04,0.4,0.01,0.57-0.05c0.22-0.08,0.13-0.34,0.29-0.45
					c0.1-0.07,0.29-0.01,0.41-0.05c0.2-0.07,0.34-0.26,0.38-0.46c0.02-0.08,0.01-0.14,0.04-0.22c0.04-0.1,0.11-0.16,0.09-0.29
					c-0.01-0.06-0.05-0.12-0.06-0.19c-0.02-0.11,0-0.22,0-0.34c0-0.2,0.02-0.38-0.08-0.55c-0.38-0.69-1.24-0.93-1.97-0.79
					c-0.18,0.03-0.29,0.13-0.44,0.21c-0.17,0.09-0.14,0.17-0.32,0.22c-0.08,0.03-0.22,0.12-0.21,0.22c0,0.12,0,0.05,0.01,0.17
					c-0.02,0.01-0.02,0-0.03-0.03"/>
				<path class="st2" d="M23.48-25.74c0.02,0.07,0.01,0.13-0.03,0.19c-0.05,0.1-0.11,0.06-0.17,0.13c-0.05,0.06-0.1,0.28-0.08,0.36
					c-0.17,0.06-0.01,0.23-0.02,0.35c0,0.05-0.04,0.11-0.04,0.16c-0.01,0.12,0.02,0.27,0.07,0.37c0.1,0.2,0.27,0.41,0.44,0.54
					c0.19,0.15,0.36,0.57,0.61,0.63c0.18,0.04,0.38-0.1,0.54-0.14c0.18-0.04,0.4,0.01,0.57-0.05c0.22-0.08,0.13-0.34,0.29-0.45
					c0.1-0.07,0.29-0.01,0.41-0.05c0.2-0.07,0.34-0.26,0.38-0.46c0.02-0.08,0.01-0.14,0.04-0.22c0.04-0.1,0.11-0.16,0.09-0.29
					c-0.01-0.06-0.05-0.12-0.06-0.19c-0.02-0.11,0-0.22,0-0.34c0-0.2,0.02-0.38-0.08-0.55c-0.38-0.69-1.24-0.93-1.97-0.79
					c-0.18,0.03-0.29,0.13-0.44,0.21c-0.17,0.09-0.14,0.17-0.32,0.22c-0.08,0.03-0.22,0.12-0.21,0.22c0,0.12,0,0.05,0.01,0.17
					c-0.02,0.01-0.02,0-0.03-0.03"/>
				<path class="st2" d="M15.82-25.74c0.02,0.07,0.01,0.13-0.03,0.19c-0.05,0.1-0.11,0.06-0.16,0.13c-0.05,0.06-0.1,0.28-0.08,0.36
					c-0.17,0.06-0.01,0.23-0.02,0.35c0,0.05-0.04,0.11-0.05,0.16c-0.01,0.12,0.02,0.27,0.07,0.37c0.1,0.2,0.27,0.41,0.44,0.54
					c0.19,0.15,0.36,0.57,0.61,0.63c0.18,0.04,0.38-0.1,0.54-0.14c0.18-0.04,0.4,0.01,0.57-0.05c0.22-0.08,0.13-0.34,0.29-0.45
					c0.1-0.07,0.29-0.01,0.41-0.05c0.2-0.07,0.34-0.26,0.38-0.46c0.02-0.08,0.01-0.14,0.04-0.22c0.04-0.1,0.11-0.16,0.09-0.29
					c-0.01-0.06-0.05-0.12-0.06-0.19c-0.02-0.11,0-0.22,0-0.34c0-0.2,0.02-0.38-0.08-0.55c-0.38-0.69-1.24-0.93-1.97-0.79
					c-0.18,0.03-0.29,0.13-0.44,0.21c-0.17,0.09-0.14,0.17-0.32,0.22c-0.08,0.03-0.22,0.12-0.21,0.22c0,0.12,0,0.05,0.01,0.17
					c-0.02,0.01-0.02,0-0.03-0.03"/>
				<path class="st2" d="M8.16-25.74c0.02,0.07,0.01,0.13-0.03,0.19c-0.05,0.1-0.11,0.06-0.17,0.13c-0.05,0.06-0.1,0.28-0.08,0.36
					C7.72-25,7.88-24.83,7.87-24.71c0,0.05-0.04,0.11-0.04,0.16c-0.01,0.12,0.02,0.27,0.07,0.37c0.1,0.2,0.27,0.41,0.44,0.54
					c0.19,0.15,0.36,0.57,0.61,0.63c0.18,0.04,0.38-0.1,0.54-0.14c0.18-0.04,0.4,0.01,0.57-0.05c0.22-0.08,0.13-0.34,0.29-0.45
					c0.1-0.07,0.29-0.01,0.41-0.05c0.2-0.07,0.34-0.26,0.38-0.46c0.02-0.08,0.01-0.14,0.04-0.22c0.04-0.1,0.11-0.16,0.09-0.29
					c-0.01-0.06-0.05-0.12-0.06-0.19c-0.02-0.11,0-0.22,0-0.34c0-0.2,0.02-0.38-0.08-0.55c-0.38-0.69-1.24-0.93-1.97-0.79
					c-0.18,0.03-0.29,0.13-0.44,0.21c-0.17,0.09-0.14,0.17-0.32,0.22c-0.08,0.03-0.22,0.12-0.21,0.22c0,0.12,0,0.05,0.01,0.17
					c-0.02,0.01-0.02,0-0.03-0.03"/>
				<path class="st2" d="M0.5-25.74c0.02,0.07,0.01,0.13-0.03,0.19c-0.05,0.1-0.11,0.06-0.17,0.13c-0.05,0.06-0.1,0.28-0.08,0.36
					C0.06-25,0.22-24.83,0.21-24.71c0,0.05-0.04,0.11-0.04,0.16c-0.01,0.12,0.02,0.27,0.07,0.37c0.1,0.2,0.27,0.41,0.44,0.54
					c0.19,0.15,0.36,0.57,0.61,0.63c0.18,0.04,0.38-0.1,0.54-0.14c0.18-0.04,0.4,0.01,0.57-0.05c0.22-0.08,0.13-0.34,0.29-0.45
					c0.1-0.07,0.29-0.01,0.41-0.05c0.2-0.07,0.34-0.26,0.38-0.46c0.02-0.08,0.01-0.14,0.04-0.22c0.04-0.1,0.11-0.16,0.09-0.29
					c-0.01-0.06-0.05-0.12-0.06-0.19c-0.02-0.11,0-0.22,0-0.34c0-0.2,0.02-0.38-0.08-0.55c-0.38-0.69-1.24-0.93-1.97-0.79
					c-0.18,0.03-0.29,0.13-0.44,0.21c-0.17,0.09-0.14,0.17-0.32,0.22c-0.08,0.03-0.22,0.12-0.21,0.22c0,0.12,0,0.05,0.01,0.17
					c-0.02,0.01-0.02,0-0.03-0.03"/>
			</g>
			<g>
				<path class="st2" d="M69.44-18.08c0.02,0.07,0.01,0.13-0.03,0.19c-0.05,0.1-0.11,0.06-0.17,0.13c-0.05,0.06-0.1,0.28-0.08,0.36
					c-0.17,0.06-0.01,0.23-0.02,0.35c0,0.05-0.04,0.11-0.04,0.16c-0.01,0.12,0.02,0.27,0.07,0.37c0.1,0.2,0.27,0.41,0.43,0.54
					c0.19,0.15,0.36,0.57,0.61,0.63c0.18,0.04,0.38-0.1,0.54-0.14c0.18-0.04,0.4,0.01,0.57-0.05c0.22-0.08,0.13-0.34,0.29-0.45
					c0.1-0.07,0.29-0.01,0.41-0.05c0.2-0.07,0.34-0.26,0.38-0.46c0.02-0.08,0.01-0.14,0.04-0.22c0.04-0.1,0.11-0.16,0.09-0.29
					c-0.01-0.06-0.05-0.12-0.06-0.19c-0.02-0.11,0-0.22,0-0.34c0-0.2,0.02-0.38-0.08-0.55c-0.38-0.69-1.24-0.93-1.97-0.79
					c-0.18,0.03-0.29,0.13-0.44,0.21c-0.17,0.09-0.14,0.17-0.32,0.22c-0.08,0.03-0.22,0.12-0.21,0.22c0,0.12,0,0.05,0.01,0.17
					c-0.02,0.01-0.02,0-0.03-0.03"/>
				<path class="st2" d="M61.78-18.08c0.02,0.07,0.01,0.13-0.03,0.19c-0.05,0.1-0.11,0.06-0.17,0.13c-0.05,0.06-0.1,0.28-0.08,0.36
					c-0.17,0.06-0.01,0.23-0.02,0.35c0,0.05-0.04,0.11-0.04,0.16c-0.01,0.12,0.02,0.27,0.07,0.37c0.1,0.2,0.27,0.41,0.44,0.54
					c0.19,0.15,0.36,0.57,0.61,0.63c0.18,0.04,0.38-0.1,0.54-0.14c0.18-0.04,0.4,0.01,0.57-0.05c0.22-0.08,0.13-0.34,0.29-0.45
					c0.1-0.07,0.29-0.01,0.41-0.05c0.2-0.07,0.34-0.26,0.38-0.46c0.02-0.08,0.01-0.14,0.04-0.22c0.04-0.1,0.11-0.16,0.09-0.29
					c-0.01-0.06-0.05-0.12-0.06-0.19c-0.02-0.11,0-0.22,0-0.34c0-0.2,0.02-0.38-0.08-0.55c-0.38-0.69-1.24-0.93-1.97-0.79
					c-0.18,0.03-0.29,0.13-0.44,0.21c-0.17,0.09-0.14,0.17-0.32,0.22c-0.08,0.03-0.22,0.12-0.21,0.22c0,0.12,0,0.05,0.01,0.17
					c-0.02,0.01-0.02,0-0.03-0.03"/>
				<path class="st2" d="M54.12-18.08c0.02,0.07,0.01,0.13-0.03,0.19c-0.05,0.1-0.11,0.06-0.17,0.13c-0.05,0.06-0.1,0.28-0.08,0.36
					c-0.17,0.06-0.01,0.23-0.02,0.35c0,0.05-0.04,0.11-0.04,0.16c-0.01,0.12,0.02,0.27,0.07,0.37c0.1,0.2,0.27,0.41,0.44,0.54
					c0.19,0.15,0.36,0.57,0.61,0.63c0.18,0.04,0.38-0.1,0.54-0.14c0.18-0.04,0.4,0.01,0.57-0.05c0.22-0.08,0.13-0.34,0.29-0.45
					c0.1-0.07,0.29-0.01,0.41-0.05c0.2-0.07,0.34-0.26,0.38-0.46c0.02-0.08,0.01-0.14,0.04-0.22c0.04-0.1,0.11-0.16,0.09-0.29
					c-0.01-0.06-0.05-0.12-0.06-0.19c-0.02-0.11,0-0.22,0-0.34c0-0.2,0.02-0.38-0.08-0.55c-0.38-0.69-1.24-0.93-1.97-0.79
					c-0.18,0.03-0.29,0.13-0.44,0.21c-0.17,0.09-0.14,0.17-0.32,0.22c-0.08,0.03-0.22,0.12-0.21,0.22c0,0.12,0,0.05,0.01,0.17
					c-0.02,0.01-0.02,0-0.03-0.03"/>
				<path class="st2" d="M46.46-18.08c0.02,0.07,0.01,0.13-0.03,0.19c-0.05,0.1-0.11,0.06-0.16,0.13c-0.05,0.06-0.1,0.28-0.08,0.36
					c-0.17,0.06-0.01,0.23-0.02,0.35c0,0.05-0.04,0.11-0.05,0.16c-0.01,0.12,0.02,0.27,0.07,0.37c0.1,0.2,0.27,0.41,0.44,0.54
					c0.19,0.15,0.36,0.57,0.61,0.63c0.18,0.04,0.38-0.1,0.54-0.14c0.18-0.04,0.4,0.01,0.57-0.05c0.22-0.08,0.13-0.34,0.29-0.45
					c0.1-0.07,0.29-0.01,0.41-0.05c0.2-0.07,0.34-0.26,0.38-0.46c0.02-0.08,0.01-0.14,0.04-0.22c0.04-0.1,0.11-0.16,0.09-0.29
					c-0.01-0.06-0.05-0.12-0.06-0.19c-0.02-0.11,0-0.22,0-0.34c0-0.2,0.02-0.38-0.08-0.55c-0.38-0.69-1.24-0.93-1.97-0.79
					c-0.18,0.03-0.29,0.13-0.44,0.21c-0.17,0.09-0.14,0.17-0.32,0.22c-0.08,0.03-0.22,0.12-0.21,0.22c0,0.12,0,0.05,0.01,0.17
					c-0.02,0.01-0.02,0-0.03-0.03"/>
				<path class="st2" d="M38.8-18.08c0.02,0.07,0.01,0.13-0.03,0.19c-0.05,0.1-0.11,0.06-0.17,0.13c-0.05,0.06-0.1,0.28-0.08,0.36
					c-0.17,0.06-0.01,0.23-0.02,0.35c0,0.05-0.04,0.11-0.04,0.16c-0.01,0.12,0.02,0.27,0.07,0.37c0.1,0.2,0.27,0.41,0.44,0.54
					c0.19,0.15,0.36,0.57,0.61,0.63c0.18,0.04,0.38-0.1,0.54-0.14c0.18-0.04,0.4,0.01,0.57-0.05c0.22-0.08,0.13-0.34,0.29-0.45
					c0.1-0.07,0.29-0.01,0.41-0.05c0.2-0.07,0.34-0.26,0.38-0.46c0.02-0.08,0.01-0.14,0.04-0.22c0.04-0.1,0.11-0.16,0.09-0.29
					c-0.01-0.06-0.05-0.12-0.06-0.19c-0.02-0.11,0-0.22,0-0.34c0-0.2,0.02-0.38-0.08-0.55c-0.38-0.69-1.24-0.93-1.97-0.79
					c-0.18,0.03-0.29,0.13-0.44,0.21c-0.17,0.09-0.14,0.17-0.32,0.22c-0.08,0.03-0.22,0.12-0.21,0.22c0,0.12,0,0.05,0.01,0.17
					c-0.02,0.01-0.02,0-0.03-0.03"/>
				<path class="st2" d="M31.14-18.08c0.02,0.07,0.01,0.13-0.03,0.19c-0.05,0.1-0.11,0.06-0.16,0.13c-0.05,0.06-0.1,0.28-0.08,0.36
					c-0.17,0.06-0.01,0.23-0.02,0.35c0,0.05-0.04,0.11-0.05,0.16c-0.01,0.12,0.02,0.27,0.07,0.37c0.1,0.2,0.27,0.41,0.44,0.54
					c0.19,0.15,0.36,0.57,0.61,0.63c0.18,0.04,0.38-0.1,0.54-0.14c0.18-0.04,0.4,0.01,0.57-0.05c0.22-0.08,0.13-0.34,0.29-0.45
					c0.1-0.07,0.29-0.01,0.41-0.05c0.2-0.07,0.34-0.26,0.38-0.46c0.02-0.08,0.01-0.14,0.04-0.22c0.04-0.1,0.11-0.16,0.09-0.29
					c-0.01-0.06-0.05-0.12-0.06-0.19c-0.02-0.11,0-0.22,0-0.34c0-0.2,0.02-0.38-0.08-0.55c-0.38-0.69-1.24-0.93-1.97-0.79
					c-0.18,0.03-0.29,0.13-0.44,0.21c-0.17,0.09-0.14,0.17-0.32,0.22c-0.08,0.03-0.22,0.12-0.21,0.22c0,0.12,0,0.05,0.01,0.17
					c-0.02,0.01-0.02,0-0.03-0.03"/>
				<path class="st2" d="M23.48-18.08c0.02,0.07,0.01,0.13-0.03,0.19c-0.05,0.1-0.11,0.06-0.17,0.13c-0.05,0.06-0.1,0.28-0.08,0.36
					c-0.17,0.06-0.01,0.23-0.02,0.35c0,0.05-0.04,0.11-0.04,0.16c-0.01,0.12,0.02,0.27,0.07,0.37c0.1,0.2,0.27,0.41,0.44,0.54
					c0.19,0.15,0.36,0.57,0.61,0.63c0.18,0.04,0.38-0.1,0.54-0.14c0.18-0.04,0.4,0.01,0.57-0.05c0.22-0.08,0.13-0.34,0.29-0.45
					c0.1-0.07,0.29-0.01,0.41-0.05c0.2-0.07,0.34-0.26,0.38-0.46c0.02-0.08,0.01-0.14,0.04-0.22c0.04-0.1,0.11-0.16,0.09-0.29
					c-0.01-0.06-0.05-0.12-0.06-0.19c-0.02-0.11,0-0.22,0-0.34c0-0.2,0.02-0.38-0.08-0.55c-0.38-0.69-1.24-0.93-1.97-0.79
					c-0.18,0.03-0.29,0.13-0.44,0.21c-0.17,0.09-0.14,0.17-0.32,0.22c-0.08,0.03-0.22,0.12-0.21,0.22c0,0.12,0,0.05,0.01,0.17
					c-0.02,0.01-0.02,0-0.03-0.03"/>
				<path class="st2" d="M15.82-18.08c0.02,0.07,0.01,0.13-0.03,0.19c-0.05,0.1-0.11,0.06-0.16,0.13c-0.05,0.06-0.1,0.28-0.08,0.36
					c-0.17,0.06-0.01,0.23-0.02,0.35c0,0.05-0.04,0.11-0.05,0.16c-0.01,0.12,0.02,0.27,0.07,0.37c0.1,0.2,0.27,0.41,0.44,0.54
					c0.19,0.15,0.36,0.57,0.61,0.63c0.18,0.04,0.38-0.1,0.54-0.14c0.18-0.04,0.4,0.01,0.57-0.05c0.22-0.08,0.13-0.34,0.29-0.45
					c0.1-0.07,0.29-0.01,0.41-0.05c0.2-0.07,0.34-0.26,0.38-0.46c0.02-0.08,0.01-0.14,0.04-0.22c0.04-0.1,0.11-0.16,0.09-0.29
					c-0.01-0.06-0.05-0.12-0.06-0.19c-0.02-0.11,0-0.22,0-0.34c0-0.2,0.02-0.38-0.08-0.55c-0.38-0.69-1.24-0.93-1.97-0.79
					c-0.18,0.03-0.29,0.13-0.44,0.21c-0.17,0.09-0.14,0.17-0.32,0.22c-0.08,0.03-0.22,0.12-0.21,0.22c0,0.12,0,0.05,0.01,0.17
					c-0.02,0.01-0.02,0-0.03-0.03"/>
				<path class="st2" d="M8.16-18.08c0.02,0.07,0.01,0.13-0.03,0.19c-0.05,0.1-0.11,0.06-0.17,0.13c-0.05,0.06-0.1,0.28-0.08,0.36
					c-0.17,0.06-0.01,0.23-0.02,0.35c0,0.05-0.04,0.11-0.04,0.16c-0.01,0.12,0.02,0.27,0.07,0.37c0.1,0.2,0.27,0.41,0.44,0.54
					c0.19,0.15,0.36,0.57,0.61,0.63c0.18,0.04,0.38-0.1,0.54-0.14c0.18-0.04,0.4,0.01,0.57-0.05c0.22-0.08,0.13-0.34,0.29-0.45
					c0.1-0.07,0.29-0.01,0.41-0.05c0.2-0.07,0.34-0.26,0.38-0.46c0.02-0.08,0.01-0.14,0.04-0.22c0.04-0.1,0.11-0.16,0.09-0.29
					c-0.01-0.06-0.05-0.12-0.06-0.19c-0.02-0.11,0-0.22,0-0.34c0-0.2,0.02-0.38-0.08-0.55c-0.38-0.69-1.24-0.93-1.97-0.79
					c-0.18,0.03-0.29,0.13-0.44,0.21c-0.17,0.09-0.14,0.17-0.32,0.22c-0.08,0.03-0.22,0.12-0.21,0.22c0,0.12,0,0.05,0.01,0.17
					c-0.02,0.01-0.02,0-0.03-0.03"/>
				<path class="st2" d="M0.5-18.08c0.02,0.07,0.01,0.13-0.03,0.19c-0.05,0.1-0.11,0.06-0.17,0.13c-0.05,0.06-0.1,0.28-0.08,0.36
					c-0.17,0.06-0.01,0.23-0.02,0.35c0,0.05-0.04,0.11-0.04,0.16c-0.01,0.12,0.02,0.27,0.07,0.37c0.1,0.2,0.27,0.41,0.44,0.54
					c0.19,0.15,0.36,0.57,0.61,0.63c0.18,0.04,0.38-0.1,0.54-0.14c0.18-0.04,0.4,0.01,0.57-0.05c0.22-0.08,0.13-0.34,0.29-0.45
					c0.1-0.07,0.29-0.01,0.41-0.05c0.2-0.07,0.34-0.26,0.38-0.46c0.02-0.08,0.01-0.14,0.04-0.22c0.04-0.1,0.11-0.16,0.09-0.29
					c-0.01-0.06-0.05-0.12-0.06-0.19c-0.02-0.11,0-0.22,0-0.34c0-0.2,0.02-0.38-0.08-0.55c-0.38-0.69-1.24-0.93-1.97-0.79
					c-0.18,0.03-0.29,0.13-0.44,0.21c-0.17,0.09-0.14,0.17-0.32,0.22c-0.08,0.03-0.22,0.12-0.21,0.22c0,0.12,0,0.05,0.01,0.17
					c-0.02,0.01-0.02,0-0.03-0.03"/>
			</g>
			<g>
				<path class="st2" d="M69.44-10.43c0.02,0.07,0.01,0.13-0.03,0.19c-0.05,0.1-0.11,0.06-0.17,0.13c-0.05,0.06-0.1,0.28-0.08,0.36
					C69-9.69,69.16-9.52,69.15-9.4c0,0.05-0.04,0.11-0.04,0.16c-0.01,0.12,0.02,0.27,0.07,0.37c0.1,0.2,0.27,0.41,0.43,0.54
					c0.19,0.15,0.36,0.57,0.61,0.63c0.18,0.04,0.38-0.1,0.54-0.14c0.18-0.04,0.4,0.01,0.57-0.05c0.22-0.08,0.13-0.34,0.29-0.45
					c0.1-0.07,0.29-0.01,0.41-0.05c0.2-0.07,0.34-0.26,0.38-0.46c0.02-0.08,0.01-0.14,0.04-0.22c0.04-0.1,0.11-0.16,0.09-0.29
					c-0.01-0.06-0.05-0.12-0.06-0.19c-0.02-0.11,0-0.22,0-0.34c0-0.2,0.02-0.38-0.08-0.55c-0.38-0.69-1.24-0.93-1.97-0.79
					c-0.18,0.03-0.29,0.13-0.44,0.21c-0.17,0.09-0.14,0.17-0.32,0.22c-0.08,0.03-0.22,0.12-0.21,0.22c0,0.12,0,0.05,0.01,0.17
					c-0.02,0.01-0.02,0-0.03-0.03"/>
				<path class="st2" d="M61.78-10.43c0.02,0.07,0.01,0.13-0.03,0.19c-0.05,0.1-0.11,0.06-0.17,0.13c-0.05,0.06-0.1,0.28-0.08,0.36
					c-0.17,0.06-0.01,0.23-0.02,0.35c0,0.05-0.04,0.11-0.04,0.16c-0.01,0.12,0.02,0.27,0.07,0.37c0.1,0.2,0.27,0.41,0.44,0.54
					c0.19,0.15,0.36,0.57,0.61,0.63c0.18,0.04,0.38-0.1,0.54-0.14c0.18-0.04,0.4,0.01,0.57-0.05c0.22-0.08,0.13-0.34,0.29-0.45
					c0.1-0.07,0.29-0.01,0.41-0.05c0.2-0.07,0.34-0.26,0.38-0.46c0.02-0.08,0.01-0.14,0.04-0.22c0.04-0.1,0.11-0.16,0.09-0.29
					c-0.01-0.06-0.05-0.12-0.06-0.19c-0.02-0.11,0-0.22,0-0.34c0-0.2,0.02-0.38-0.08-0.55c-0.38-0.69-1.24-0.93-1.97-0.79
					c-0.18,0.03-0.29,0.13-0.44,0.21c-0.17,0.09-0.14,0.17-0.32,0.22c-0.08,0.03-0.22,0.12-0.21,0.22c0,0.12,0,0.05,0.01,0.17
					c-0.02,0.01-0.02,0-0.03-0.03"/>
				<path class="st2" d="M54.12-10.43c0.02,0.07,0.01,0.13-0.03,0.19c-0.05,0.1-0.11,0.06-0.17,0.13c-0.05,0.06-0.1,0.28-0.08,0.36
					c-0.17,0.06-0.01,0.23-0.02,0.35c0,0.05-0.04,0.11-0.04,0.16c-0.01,0.12,0.02,0.27,0.07,0.37c0.1,0.2,0.27,0.41,0.44,0.54
					c0.19,0.15,0.36,0.57,0.61,0.63c0.18,0.04,0.38-0.1,0.54-0.14c0.18-0.04,0.4,0.01,0.57-0.05c0.22-0.08,0.13-0.34,0.29-0.45
					c0.1-0.07,0.29-0.01,0.41-0.05c0.2-0.07,0.34-0.26,0.38-0.46C57.1-8.93,57.09-9,57.12-9.07c0.04-0.1,0.11-0.16,0.09-0.29
					c-0.01-0.06-0.05-0.12-0.06-0.19c-0.02-0.11,0-0.22,0-0.34c0-0.2,0.02-0.38-0.08-0.55c-0.38-0.69-1.24-0.93-1.97-0.79
					c-0.18,0.03-0.29,0.13-0.44,0.21c-0.17,0.09-0.14,0.17-0.32,0.22c-0.08,0.03-0.22,0.12-0.21,0.22c0,0.12,0,0.05,0.01,0.17
					c-0.02,0.01-0.02,0-0.03-0.03"/>
				<path class="st2" d="M46.46-10.43c0.02,0.07,0.01,0.13-0.03,0.19c-0.05,0.1-0.11,0.06-0.16,0.13c-0.05,0.06-0.1,0.28-0.08,0.36
					c-0.17,0.06-0.01,0.23-0.02,0.35c0,0.05-0.04,0.11-0.05,0.16c-0.01,0.12,0.02,0.27,0.07,0.37c0.1,0.2,0.27,0.41,0.44,0.54
					c0.19,0.15,0.36,0.57,0.61,0.63c0.18,0.04,0.38-0.1,0.54-0.14c0.18-0.04,0.4,0.01,0.57-0.05c0.22-0.08,0.13-0.34,0.29-0.45
					c0.1-0.07,0.29-0.01,0.41-0.05c0.2-0.07,0.34-0.26,0.38-0.46c0.02-0.08,0.01-0.14,0.04-0.22c0.04-0.1,0.11-0.16,0.09-0.29
					c-0.01-0.06-0.05-0.12-0.06-0.19c-0.02-0.11,0-0.22,0-0.34c0-0.2,0.02-0.38-0.08-0.55c-0.38-0.69-1.24-0.93-1.97-0.79
					c-0.18,0.03-0.29,0.13-0.44,0.21c-0.17,0.09-0.14,0.17-0.32,0.22c-0.08,0.03-0.22,0.12-0.21,0.22c0,0.12,0,0.05,0.01,0.17
					c-0.02,0.01-0.02,0-0.03-0.03"/>
				<path class="st2" d="M38.8-10.43c0.02,0.07,0.01,0.13-0.03,0.19c-0.05,0.1-0.11,0.06-0.17,0.13c-0.05,0.06-0.1,0.28-0.08,0.36
					c-0.17,0.06-0.01,0.23-0.02,0.35c0,0.05-0.04,0.11-0.04,0.16c-0.01,0.12,0.02,0.27,0.07,0.37c0.1,0.2,0.27,0.41,0.44,0.54
					c0.19,0.15,0.36,0.57,0.61,0.63c0.18,0.04,0.38-0.1,0.54-0.14c0.18-0.04,0.4,0.01,0.57-0.05c0.22-0.08,0.13-0.34,0.29-0.45
					c0.1-0.07,0.29-0.01,0.41-0.05c0.2-0.07,0.34-0.26,0.38-0.46C41.78-8.93,41.77-9,41.8-9.07c0.04-0.1,0.11-0.16,0.09-0.29
					c-0.01-0.06-0.05-0.12-0.06-0.19c-0.02-0.11,0-0.22,0-0.34c0-0.2,0.02-0.38-0.08-0.55c-0.38-0.69-1.24-0.93-1.97-0.79
					c-0.18,0.03-0.29,0.13-0.44,0.21c-0.17,0.09-0.14,0.17-0.32,0.22c-0.08,0.03-0.22,0.12-0.21,0.22c0,0.12,0,0.05,0.01,0.17
					c-0.02,0.01-0.02,0-0.03-0.03"/>
				<path class="st2" d="M31.14-10.43c0.02,0.07,0.01,0.13-0.03,0.19c-0.05,0.1-0.11,0.06-0.16,0.13c-0.05,0.06-0.1,0.28-0.08,0.36
					c-0.17,0.06-0.01,0.23-0.02,0.35c0,0.05-0.04,0.11-0.05,0.16c-0.01,0.12,0.02,0.27,0.07,0.37c0.1,0.2,0.27,0.41,0.44,0.54
					c0.19,0.15,0.36,0.57,0.61,0.63c0.18,0.04,0.38-0.1,0.54-0.14c0.18-0.04,0.4,0.01,0.57-0.05c0.22-0.08,0.13-0.34,0.29-0.45
					c0.1-0.07,0.29-0.01,0.41-0.05c0.2-0.07,0.34-0.26,0.38-0.46c0.02-0.08,0.01-0.14,0.04-0.22c0.04-0.1,0.11-0.16,0.09-0.29
					c-0.01-0.06-0.05-0.12-0.06-0.19c-0.02-0.11,0-0.22,0-0.34c0-0.2,0.02-0.38-0.08-0.55c-0.38-0.69-1.24-0.93-1.97-0.79
					c-0.18,0.03-0.29,0.13-0.44,0.21c-0.17,0.09-0.14,0.17-0.32,0.22c-0.08,0.03-0.22,0.12-0.21,0.22c0,0.12,0,0.05,0.01,0.17
					c-0.02,0.01-0.02,0-0.03-0.03"/>
				<path class="st2" d="M23.48-10.43c0.02,0.07,0.01,0.13-0.03,0.19c-0.05,0.1-0.11,0.06-0.17,0.13c-0.05,0.06-0.1,0.28-0.08,0.36
					c-0.17,0.06-0.01,0.23-0.02,0.35c0,0.05-0.04,0.11-0.04,0.16c-0.01,0.12,0.02,0.27,0.07,0.37c0.1,0.2,0.27,0.41,0.44,0.54
					c0.19,0.15,0.36,0.57,0.61,0.63c0.18,0.04,0.38-0.1,0.54-0.14c0.18-0.04,0.4,0.01,0.57-0.05c0.22-0.08,0.13-0.34,0.29-0.45
					c0.1-0.07,0.29-0.01,0.41-0.05c0.2-0.07,0.34-0.26,0.38-0.46c0.02-0.08,0.01-0.14,0.04-0.22c0.04-0.1,0.11-0.16,0.09-0.29
					c-0.01-0.06-0.05-0.12-0.06-0.19c-0.02-0.11,0-0.22,0-0.34c0-0.2,0.02-0.38-0.08-0.55c-0.38-0.69-1.24-0.93-1.97-0.79
					c-0.18,0.03-0.29,0.13-0.44,0.21c-0.17,0.09-0.14,0.17-0.32,0.22c-0.08,0.03-0.22,0.12-0.21,0.22c0,0.12,0,0.05,0.01,0.17
					c-0.02,0.01-0.02,0-0.03-0.03"/>
				<path class="st2" d="M15.82-10.43c0.02,0.07,0.01,0.13-0.03,0.19c-0.05,0.1-0.11,0.06-0.16,0.13c-0.05,0.06-0.1,0.28-0.08,0.36
					c-0.17,0.06-0.01,0.23-0.02,0.35c0,0.05-0.04,0.11-0.05,0.16c-0.01,0.12,0.02,0.27,0.07,0.37c0.1,0.2,0.27,0.41,0.44,0.54
					c0.19,0.15,0.36,0.57,0.61,0.63c0.18,0.04,0.38-0.1,0.54-0.14c0.18-0.04,0.4,0.01,0.57-0.05c0.22-0.08,0.13-0.34,0.29-0.45
					c0.1-0.07,0.29-0.01,0.41-0.05c0.2-0.07,0.34-0.26,0.38-0.46C18.8-8.93,18.79-9,18.82-9.07c0.04-0.1,0.11-0.16,0.09-0.29
					c-0.01-0.06-0.05-0.12-0.06-0.19c-0.02-0.11,0-0.22,0-0.34c0-0.2,0.02-0.38-0.08-0.55c-0.38-0.69-1.24-0.93-1.97-0.79
					c-0.18,0.03-0.29,0.13-0.44,0.21c-0.17,0.09-0.14,0.17-0.32,0.22c-0.08,0.03-0.22,0.12-0.21,0.22c0,0.12,0,0.05,0.01,0.17
					c-0.02,0.01-0.02,0-0.03-0.03"/>
				<path class="st2" d="M8.16-10.43c0.02,0.07,0.01,0.13-0.03,0.19c-0.05,0.1-0.11,0.06-0.17,0.13c-0.05,0.06-0.1,0.28-0.08,0.36
					C7.72-9.69,7.88-9.52,7.87-9.4c0,0.05-0.04,0.11-0.04,0.16C7.82-9.12,7.84-8.97,7.89-8.87c0.1,0.2,0.27,0.41,0.44,0.54
					c0.19,0.15,0.36,0.57,0.61,0.63c0.18,0.04,0.38-0.1,0.54-0.14c0.18-0.04,0.4,0.01,0.57-0.05c0.22-0.08,0.13-0.34,0.29-0.45
					c0.1-0.07,0.29-0.01,0.41-0.05c0.2-0.07,0.34-0.26,0.38-0.46c0.02-0.08,0.01-0.14,0.04-0.22c0.04-0.1,0.11-0.16,0.09-0.29
					c-0.01-0.06-0.05-0.12-0.06-0.19c-0.02-0.11,0-0.22,0-0.34c0-0.2,0.02-0.38-0.08-0.55c-0.38-0.69-1.24-0.93-1.97-0.79
					c-0.18,0.03-0.29,0.13-0.44,0.21c-0.17,0.09-0.14,0.17-0.32,0.22c-0.08,0.03-0.22,0.12-0.21,0.22c0,0.12,0,0.05,0.01,0.17
					c-0.02,0.01-0.02,0-0.03-0.03"/>
				<path class="st2" d="M0.5-10.43c0.02,0.07,0.01,0.13-0.03,0.19c-0.05,0.1-0.11,0.06-0.17,0.13c-0.05,0.06-0.1,0.28-0.08,0.36
					C0.06-9.69,0.22-9.52,0.21-9.4c0,0.05-0.04,0.11-0.04,0.16C0.16-9.12,0.18-8.97,0.23-8.87c0.1,0.2,0.27,0.41,0.44,0.54
					c0.19,0.15,0.36,0.57,0.61,0.63c0.18,0.04,0.38-0.1,0.54-0.14C2-7.88,2.22-7.83,2.39-7.89c0.22-0.08,0.13-0.34,0.29-0.45
					c0.1-0.07,0.29-0.01,0.41-0.05c0.2-0.07,0.34-0.26,0.38-0.46C3.48-8.93,3.47-9,3.5-9.07c0.04-0.1,0.11-0.16,0.09-0.29
					C3.58-9.43,3.54-9.48,3.53-9.55c-0.02-0.11,0-0.22,0-0.34c0-0.2,0.02-0.38-0.08-0.55c-0.38-0.69-1.24-0.93-1.97-0.79
					c-0.18,0.03-0.29,0.13-0.44,0.21c-0.17,0.09-0.14,0.17-0.32,0.22c-0.08,0.03-0.22,0.12-0.21,0.22c0,0.12,0,0.05,0.01,0.17
					c-0.02,0.01-0.02,0-0.03-0.03"/>
			</g>
		</g>
		<g>
			<path class="st2" d="M69.44-2.78c0.02,0.07,0.01,0.13-0.03,0.19c-0.05,0.1-0.11,0.06-0.17,0.13c-0.05,0.06-0.1,0.28-0.08,0.36
				C69-2.04,69.16-1.87,69.15-1.75c0,0.05-0.04,0.11-0.04,0.16c-0.01,0.12,0.02,0.27,0.07,0.37c0.1,0.2,0.27,0.41,0.43,0.54
				c0.19,0.15,0.36,0.57,0.61,0.63C70.4,0,70.6-0.15,70.76-0.18c0.18-0.04,0.4,0.01,0.57-0.05c0.22-0.08,0.13-0.34,0.29-0.45
				c0.1-0.07,0.29-0.01,0.41-0.05C72.23-0.81,72.37-1,72.4-1.2c0.02-0.08,0.01-0.14,0.04-0.22c0.04-0.1,0.11-0.16,0.09-0.29
				c-0.01-0.06-0.05-0.12-0.06-0.19c-0.02-0.11,0-0.22,0-0.34c0-0.2,0.02-0.38-0.08-0.55c-0.38-0.69-1.24-0.93-1.97-0.79
				c-0.18,0.03-0.29,0.13-0.44,0.21c-0.17,0.09-0.14,0.17-0.32,0.22c-0.08,0.03-0.22,0.12-0.21,0.22c0,0.12,0,0.05,0.01,0.17
				c-0.02,0.01-0.02,0-0.03-0.03"/>
			<path class="st2" d="M61.78-2.78c0.02,0.07,0.01,0.13-0.03,0.19c-0.05,0.1-0.11,0.06-0.17,0.13c-0.05,0.06-0.1,0.28-0.08,0.36
				c-0.17,0.06-0.01,0.23-0.02,0.35c0,0.05-0.04,0.11-0.04,0.16c-0.01,0.12,0.02,0.27,0.07,0.37c0.1,0.2,0.27,0.41,0.44,0.54
				c0.19,0.15,0.36,0.57,0.61,0.63c0.18,0.04,0.38-0.1,0.54-0.14c0.18-0.04,0.4,0.01,0.57-0.05c0.22-0.08,0.13-0.34,0.29-0.45
				c0.1-0.07,0.29-0.01,0.41-0.05c0.2-0.07,0.34-0.26,0.38-0.46c0.02-0.08,0.01-0.14,0.04-0.22c0.04-0.1,0.11-0.16,0.09-0.29
				c-0.01-0.06-0.05-0.12-0.06-0.19c-0.02-0.11,0-0.22,0-0.34c0-0.2,0.02-0.38-0.08-0.55c-0.38-0.69-1.24-0.93-1.97-0.79
				c-0.18,0.03-0.29,0.13-0.44,0.21C62.14-3.28,62.18-3.2,62-3.14c-0.08,0.03-0.22,0.12-0.21,0.22c0,0.12,0,0.05,0.01,0.17
				c-0.02,0.01-0.02,0-0.03-0.03"/>
			<path class="st2" d="M54.12-2.78c0.02,0.07,0.01,0.13-0.03,0.19c-0.05,0.1-0.11,0.06-0.17,0.13c-0.05,0.06-0.1,0.28-0.08,0.36
				c-0.17,0.06-0.01,0.23-0.02,0.35c0,0.05-0.04,0.11-0.04,0.16c-0.01,0.12,0.02,0.27,0.07,0.37c0.1,0.2,0.27,0.41,0.44,0.54
				c0.19,0.15,0.36,0.57,0.61,0.63c0.18,0.04,0.38-0.1,0.54-0.14c0.18-0.04,0.4,0.01,0.57-0.05c0.22-0.08,0.13-0.34,0.29-0.45
				c0.1-0.07,0.29-0.01,0.41-0.05c0.2-0.07,0.34-0.26,0.38-0.46c0.02-0.08,0.01-0.14,0.04-0.22c0.04-0.1,0.11-0.16,0.09-0.29
				c-0.01-0.06-0.05-0.12-0.06-0.19c-0.02-0.11,0-0.22,0-0.34c0-0.2,0.02-0.38-0.08-0.55c-0.38-0.69-1.24-0.93-1.97-0.79
				c-0.18,0.03-0.29,0.13-0.44,0.21c-0.17,0.09-0.14,0.17-0.32,0.22c-0.08,0.03-0.22,0.12-0.21,0.22c0,0.12,0,0.05,0.01,0.17
				c-0.02,0.01-0.02,0-0.03-0.03"/>
			<path class="st2" d="M46.46-2.78c0.02,0.07,0.01,0.13-0.03,0.19c-0.05,0.1-0.11,0.06-0.16,0.13c-0.05,0.06-0.1,0.28-0.08,0.36
				c-0.17,0.06-0.01,0.23-0.02,0.35c0,0.05-0.04,0.11-0.05,0.16c-0.01,0.12,0.02,0.27,0.07,0.37c0.1,0.2,0.27,0.41,0.44,0.54
				C46.82-0.52,47-0.1,47.24-0.04c0.18,0.04,0.38-0.1,0.54-0.14c0.18-0.04,0.4,0.01,0.57-0.05c0.22-0.08,0.13-0.34,0.29-0.45
				c0.1-0.07,0.29-0.01,0.41-0.05c0.2-0.07,0.34-0.26,0.38-0.46c0.02-0.08,0.01-0.14,0.04-0.22c0.04-0.1,0.11-0.16,0.09-0.29
				c-0.01-0.06-0.05-0.12-0.06-0.19c-0.02-0.11,0-0.22,0-0.34c0-0.2,0.02-0.38-0.08-0.55c-0.38-0.69-1.24-0.93-1.97-0.79
				c-0.18,0.03-0.29,0.13-0.44,0.21c-0.17,0.09-0.14,0.17-0.32,0.22c-0.08,0.03-0.22,0.12-0.21,0.22c0,0.12,0,0.05,0.01,0.17
				c-0.02,0.01-0.02,0-0.03-0.03"/>
			<path class="st2" d="M38.8-2.78c0.02,0.07,0.01,0.13-0.03,0.19c-0.05,0.1-0.11,0.06-0.17,0.13c-0.05,0.06-0.1,0.28-0.08,0.36
				c-0.17,0.06-0.01,0.23-0.02,0.35c0,0.05-0.04,0.11-0.04,0.16c-0.01,0.12,0.02,0.27,0.07,0.37c0.1,0.2,0.27,0.41,0.44,0.54
				c0.19,0.15,0.36,0.57,0.61,0.63c0.18,0.04,0.38-0.1,0.54-0.14c0.18-0.04,0.4,0.01,0.57-0.05c0.22-0.08,0.13-0.34,0.29-0.45
				c0.1-0.07,0.29-0.01,0.41-0.05c0.2-0.07,0.34-0.26,0.38-0.46c0.02-0.08,0.01-0.14,0.04-0.22c0.04-0.1,0.11-0.16,0.09-0.29
				c-0.01-0.06-0.05-0.12-0.06-0.19c-0.02-0.11,0-0.22,0-0.34c0-0.2,0.02-0.38-0.08-0.55c-0.38-0.69-1.24-0.93-1.97-0.79
				c-0.18,0.03-0.29,0.13-0.44,0.21c-0.17,0.09-0.14,0.17-0.32,0.22c-0.08,0.03-0.22,0.12-0.21,0.22c0,0.12,0,0.05,0.01,0.17
				c-0.02,0.01-0.02,0-0.03-0.03"/>
			<path class="st2" d="M31.14-2.78c0.02,0.07,0.01,0.13-0.03,0.19c-0.05,0.1-0.11,0.06-0.16,0.13c-0.05,0.06-0.1,0.28-0.08,0.36
				c-0.17,0.06-0.01,0.23-0.02,0.35c0,0.05-0.04,0.11-0.05,0.16c-0.01,0.12,0.02,0.27,0.07,0.37c0.1,0.2,0.27,0.41,0.44,0.54
				c0.19,0.15,0.36,0.57,0.61,0.63C32.1,0,32.3-0.15,32.46-0.18c0.18-0.04,0.4,0.01,0.57-0.05c0.22-0.08,0.13-0.34,0.29-0.45
				c0.1-0.07,0.29-0.01,0.41-0.05C33.93-0.81,34.07-1,34.1-1.2c0.02-0.08,0.01-0.14,0.04-0.22c0.04-0.1,0.11-0.16,0.09-0.29
				c-0.01-0.06-0.05-0.12-0.06-0.19c-0.02-0.11,0-0.22,0-0.34c0-0.2,0.02-0.38-0.08-0.55c-0.38-0.69-1.24-0.93-1.97-0.79
				c-0.18,0.03-0.29,0.13-0.44,0.21c-0.17,0.09-0.14,0.17-0.32,0.22c-0.08,0.03-0.22,0.12-0.21,0.22c0,0.12,0,0.05,0.01,0.17
				c-0.02,0.01-0.02,0-0.03-0.03"/>
			<path class="st2" d="M23.48-2.78c0.02,0.07,0.01,0.13-0.03,0.19c-0.05,0.1-0.11,0.06-0.17,0.13c-0.05,0.06-0.1,0.28-0.08,0.36
				c-0.17,0.06-0.01,0.23-0.02,0.35c0,0.05-0.04,0.11-0.04,0.16c-0.01,0.12,0.02,0.27,0.07,0.37c0.1,0.2,0.27,0.41,0.44,0.54
				c0.19,0.15,0.36,0.57,0.61,0.63c0.18,0.04,0.38-0.1,0.54-0.14c0.18-0.04,0.4,0.01,0.57-0.05c0.22-0.08,0.13-0.34,0.29-0.45
				c0.1-0.07,0.29-0.01,0.41-0.05c0.2-0.07,0.34-0.26,0.38-0.46c0.02-0.08,0.01-0.14,0.04-0.22c0.04-0.1,0.11-0.16,0.09-0.29
				c-0.01-0.06-0.05-0.12-0.06-0.19c-0.02-0.11,0-0.22,0-0.34c0-0.2,0.02-0.38-0.08-0.55c-0.38-0.69-1.24-0.93-1.97-0.79
				c-0.18,0.03-0.29,0.13-0.44,0.21c-0.17,0.09-0.14,0.17-0.32,0.22c-0.08,0.03-0.22,0.12-0.21,0.22c0,0.12,0,0.05,0.01,0.17
				c-0.02,0.01-0.02,0-0.03-0.03"/>
			<path class="st2" d="M15.82-2.78c0.02,0.07,0.01,0.13-0.03,0.19c-0.05,0.1-0.11,0.06-0.16,0.13c-0.05,0.06-0.1,0.28-0.08,0.36
				c-0.17,0.06-0.01,0.23-0.02,0.35c0,0.05-0.04,0.11-0.05,0.16c-0.01,0.12,0.02,0.27,0.07,0.37c0.1,0.2,0.27,0.41,0.44,0.54
				c0.19,0.15,0.36,0.57,0.61,0.63c0.18,0.04,0.38-0.1,0.54-0.14c0.18-0.04,0.4,0.01,0.57-0.05c0.22-0.08,0.13-0.34,0.29-0.45
				c0.1-0.07,0.29-0.01,0.41-0.05c0.2-0.07,0.34-0.26,0.38-0.46c0.02-0.08,0.01-0.14,0.04-0.22c0.04-0.1,0.11-0.16,0.09-0.29
				c-0.01-0.06-0.05-0.12-0.06-0.19c-0.02-0.11,0-0.22,0-0.34c0-0.2,0.02-0.38-0.08-0.55c-0.38-0.69-1.24-0.93-1.97-0.79
				c-0.18,0.03-0.29,0.13-0.44,0.21c-0.17,0.09-0.14,0.17-0.32,0.22c-0.08,0.03-0.22,0.12-0.21,0.22c0,0.12,0,0.05,0.01,0.17
				c-0.02,0.01-0.02,0-0.03-0.03"/>
			<path class="st2" d="M8.16-2.78c0.02,0.07,0.01,0.13-0.03,0.19c-0.05,0.1-0.11,0.06-0.17,0.13C7.91-2.4,7.87-2.18,7.89-2.1
				C7.72-2.04,7.88-1.87,7.87-1.75c0,0.05-0.04,0.11-0.04,0.16C7.82-1.47,7.84-1.32,7.89-1.22c0.1,0.2,0.27,0.41,0.44,0.54
				C8.52-0.52,8.69-0.1,8.94-0.04C9.11,0,9.32-0.15,9.48-0.18c0.18-0.04,0.4,0.01,0.57-0.05c0.22-0.08,0.13-0.34,0.29-0.45
				c0.1-0.07,0.29-0.01,0.41-0.05c0.2-0.07,0.34-0.26,0.38-0.46c0.02-0.08,0.01-0.14,0.04-0.22c0.04-0.1,0.11-0.16,0.09-0.29
				c-0.01-0.06-0.05-0.12-0.06-0.19c-0.02-0.11,0-0.22,0-0.34c0-0.2,0.02-0.38-0.08-0.55c-0.38-0.69-1.24-0.93-1.97-0.79
				C8.95-3.54,8.85-3.45,8.69-3.37C8.52-3.28,8.55-3.2,8.37-3.14C8.29-3.12,8.16-3.02,8.16-2.92c0,0.12,0,0.05,0.01,0.17
				c-0.02,0.01-0.02,0-0.03-0.03"/>
			<path class="st2" d="M0.5-2.78C0.51-2.71,0.5-2.65,0.47-2.59C0.42-2.49,0.36-2.53,0.3-2.46C0.25-2.4,0.21-2.18,0.23-2.1
				C0.06-2.04,0.21-1.87,0.21-1.75c0,0.05-0.04,0.11-0.04,0.16C0.15-1.47,0.18-1.32,0.23-1.22c0.1,0.2,0.27,0.41,0.44,0.54
				C0.86-0.52,1.03-0.1,1.28-0.04C1.45,0,1.66-0.15,1.82-0.18C2-0.23,2.22-0.17,2.39-0.24c0.22-0.08,0.13-0.34,0.29-0.45
				c0.1-0.07,0.29-0.01,0.41-0.05C3.28-0.81,3.42-1,3.46-1.2C3.48-1.28,3.47-1.34,3.5-1.42c0.04-0.1,0.11-0.16,0.09-0.29
				C3.58-1.77,3.54-1.83,3.53-1.9c-0.02-0.11,0-0.22,0-0.34c0-0.2,0.02-0.38-0.08-0.55C3.07-3.47,2.21-3.71,1.47-3.57
				C1.29-3.54,1.19-3.45,1.03-3.37C0.86-3.28,0.89-3.2,0.71-3.14C0.63-3.12,0.5-3.02,0.5-2.92c0,0.12,0,0.05,0.01,0.17
				c-0.02,0.01-0.02,0-0.03-0.03"/>
		</g>
	</g>
</pattern>
<g>
	<path class="st3" d="M127.65,283.16c0,0,42.44-3.89,89.29-55.55c40.18-44.31,38.69-77.38,38.69-103.51c0-26.12,0-124.34,0-124.34H0
		v142.86c0,0,2.31,49.11,44.31,87.96C90.37,273.18,114.75,281.17,127.65,283.16z"/>
	<path class="st4" d="M229.79,56.8v91.1c0,0,2.03,27.28-15.34,53.57c-14.1,21.36-31.75,34.39-53.41,40.51
		c-21.66,6.12-34.06,4.96-49.44,3.47c-15.38-1.49-39.85-14.06-52.42-26.29c-12.56-12.24-25.67-32.12-28.27-55.39
		c-3.14-28.11,3.84-44.99,9.43-55.23c6.94-12.73,20.53-29.37,39.85-39.52c9.76-5.13,18.02-10.42,40.01-12.4L229.79,56.8z"/>
	<polygon class="st2" points="1.24,55.72 20.67,55.72 101.11,131.7 101.11,273.07 96.81,270.84 96.81,145.59 	"/>
	<polygon class="st2" points="43.73,55.72 63.58,55.72 110.62,100.2 110.62,277.66 106.28,275.86 106.28,114.09 	"/>
	<polygon class="st2" points="83.64,55.8 103.55,55.8 120.23,70.31 120.41,281.5 116.01,280.01 116.01,84.26 	"/>
	<polygon class="st2" points="134.92,117.97 151.95,103.42 171.47,103.42 139.39,131.86 139.39,280.26 134.84,281.5 	"/>
	<polygon class="st2" points="191.8,103.42 211.48,103.42 148.89,161.87 148.89,276.87 144.68,278.61 144.68,147.73 	"/>
	<polygon class="st2" points="234.63,103.34 254.22,103.34 158.48,193.29 158.48,272.82 154.35,274.81 154.35,179.32 	"/>
	<rect x="7.11" y="10.17" class="st5" width="33.73" height="36.04"/>
	<rect x="44.64" y="10.17" class="st5" width="31.25" height="36.21"/>
	<rect x="79.86" y="10.17" class="st5" width="38.86" height="36.29"/>
	<g>
		<g>
			<g>
				<path class="st2" d="M11.18,14.95h8l0.04,13.94c0,2.21-0.07,2.83,0.16,3.46c0.36,1.04,0.67,1.6,1.54,2.12
					c1.02,0.61,1.59,0.72,2.89,0.7c1.93-0.02,2.44-0.5,3.05-1.08c0.56-0.53,0.77-0.66,1.01-1.83c0.18-0.88,0.11-1.04,0.11-3.07
					V14.95h7.98L36,28.47c0,3.09-0.17,5.27-0.51,6.55c-0.34,1.28-0.97,2.35-1.88,3.23c-0.91,0.88-2.13,1.58-3.66,2.1
					c-1.53,0.52-3.52,0.78-5.99,0.78c-2.97,0-5.23-0.28-6.76-0.85c-1.54-0.57-2.75-1.3-3.64-2.21c-0.89-0.91-1.48-1.86-1.76-2.85
					c-0.41-1.48-0.61-3.65-0.61-6.53V14.95z"/>
			</g>
		</g>
	</g>
	<g>
		<path class="st2" d="M72.33,22.9c0,1.23-0.22,2.4-0.65,3.51c-0.43,1.11-1.06,2.04-1.87,2.78c-0.5,0.46-1.05,0.89-1.64,1.28
			c-0.6,0.39-1.26,0.72-1.98,0.99c-0.72,0.27-1.5,0.48-2.35,0.64C63,32.24,62.05,32.32,61,32.32l-3.35-0.05l0,8.72l-7.86-0.05V14.57
			h11.37c1.69,0,3.15,0.14,4.38,0.41c1.22,0.28,2.34,0.72,3.33,1.32c1.1,0.66,1.95,1.54,2.56,2.65
			C72.03,20.06,72.33,21.37,72.33,22.9z M63.77,22.83c0-0.56-0.16-1.03-0.48-1.43c-0.32-0.4-0.7-0.68-1.15-0.83
			c-0.57-0.2-1.11-0.32-1.63-0.35c-0.52-0.03-1.22-0.05-2.1-0.05h-0.85v5.9h0.42c0.56,0,1.1,0,1.6-0.01
			c0.5-0.01,0.94-0.04,1.31-0.09c0.32-0.04,0.66-0.13,1.02-0.26c0.36-0.13,0.63-0.27,0.82-0.43c0.41-0.33,0.68-0.66,0.83-1.02
			C63.69,23.91,63.77,23.43,63.77,22.83z"/>
	</g>
	<g>
		<path class="st2" d="M84.56,40.96V15.23l10.49-0.04l4.03,15.38l4.03-15.38l10.42,0.04v25.73l-6.51-0.04l-0.06-17.55l-5,17.59
			h-5.83L91.09,23.5v17.49L84.56,40.96z"/>
	</g>
	<g>
		<path class="st6" d="M145.5,40.67c0,0,4.24,1.66,8.33,0.61c4.09-1.04,8.26-3.02,11.28-3.32c3.02-0.31,7.97,0.06,11.71,1.48
			c3.73,1.42,5.1,2.46,6.46,3.88l-0.09,39.32c0,0-3.86-2.86-7.81-3.98c-3.88-1.11-5.17-1.6-9.7-1.17c-5.8,0.55-7.35,2.96-11.85,3.45
			c-3.59,0.39-3.67,0.31-8.26-0.68L145.5,40.67z"/>
		<path class="st6" d="M221.58,40.63c0,0-4.3,1.66-8.46,0.62c-4.16-1.05-8.39-3.02-11.45-3.32c-3.06-0.31-8.1,0.06-11.89,1.48
			c-3.79,1.41-5.18,2.46-6.56,3.88l-0.03,39.37c0,0,4.04-2.91,8.06-4.04c3.94-1.11,5.25-1.6,9.84-1.17
			c5.89,0.55,7.47,2.96,12.03,3.45c3.65,0.39,3.72,0.31,8.39-0.68L221.58,40.63z"/>
	</g>
	<g>
		<path class="st6" d="M147.57,39.21c0,0,4.02,1.67,7.91,0.62c3.89-1.05,7.84-3.04,10.71-3.35c2.86-0.31,7.57,0.06,11.12,1.49
			c3.55,1.43,4.84,2.48,6.14,3.91l-0.09,39.6c0,0-3.67-2.88-7.42-4.01c-3.68-1.12-4.91-1.61-9.21-1.18
			c-5.51,0.56-6.98,2.98-11.25,3.47c-3.41,0.39-3.48,0.31-7.85-0.68L147.57,39.21z"/>
		<path class="st6" d="M219.81,39.17c0,0-4.09,1.67-8.03,0.62c-3.95-1.05-7.96-3.04-10.87-3.35c-2.91-0.31-7.69,0.06-11.29,1.49
			c-3.6,1.43-4.92,2.48-6.23,3.91l-0.03,39.66c0,0,3.84-2.93,7.65-4.07c3.74-1.12,4.99-1.61,9.35-1.18
			c5.59,0.56,7.09,2.98,11.42,3.47c3.47,0.4,3.53,0.31,7.96-0.68L219.81,39.17z"/>
	</g>
	<g>
		<path class="st6" d="M149.18,37.76c0,0,3.84,1.67,7.54,0.62c3.71-1.05,7.48-3.04,10.21-3.35c2.73-0.31,7.22,0.06,10.6,1.49
			c3.38,1.43,4.62,2.48,5.85,3.91l-0.08,39.61c0,0-3.5-2.88-7.07-4.02c-3.51-1.12-4.69-1.61-8.78-1.18
			c-5.26,0.56-6.66,2.98-10.73,3.47c-3.25,0.39-3.32,0.31-7.48-0.68L149.18,37.76z"/>
		<path class="st6" d="M218.07,37.72c0,0-3.9,1.67-7.66,0.62c-3.76-1.05-7.6-3.04-10.37-3.35c-2.77-0.31-7.33,0.06-10.77,1.49
			c-3.43,1.43-4.69,2.48-5.94,3.91l-0.03,39.66c0,0,3.66-2.93,7.29-4.07c3.56-1.12,4.75-1.61,8.91-1.18
			c5.34,0.56,6.76,2.98,10.9,3.47c3.3,0.39,3.37,0.31,7.59-0.68L218.07,37.72z"/>
	</g>
	<g>
		<path class="st7" d="M150.8,35.9c0,0,3.66,1.67,7.19,0.62c3.53-1.05,7.13-3.04,9.73-3.35c2.6-0.31,6.88,0.06,10.11,1.49
			c3.22,1.43,4.4,2.48,5.58,3.91l-0.08,39.61c0,0-3.33-2.88-6.74-4.02c-3.35-1.12-4.46-1.61-8.37-1.18
			c-5.01,0.56-6.35,2.98-10.23,3.47c-3.1,0.39-3.16,0.31-7.13-0.68L150.8,35.9z"/>
		<path class="st7" d="M216.46,35.86c0,0-3.71,1.67-7.3,0.62c-3.59-1.05-7.24-3.04-9.88-3.35c-2.64-0.31-6.99,0.06-10.26,1.49
			c-3.27,1.43-4.47,2.48-5.67,3.91l-0.03,39.66c0,0,3.49-2.93,6.95-4.07c3.4-1.12,4.53-1.61,8.5-1.18
			c5.09,0.56,6.44,2.98,10.39,3.47c3.15,0.39,3.21,0.31,7.24-0.68L216.46,35.86z"/>
	</g>
	<g>
		<g>
			<path class="st8" d="M153.15,45.55c0.31,0,2.98,1.49,9.61-1.67c6.63-3.16,10.19-1.1,11.12-0.91c1.88,0.38,6.99,4.07,6.99,4.07"/>
			<path class="st8" d="M153.23,55.93c0.31,0,2.98,1.49,9.61-1.67c6.63-3.16,10.19-1.1,11.12-0.91c1.88,0.38,6.99,4.07,6.99,4.07"/>
			<path class="st8" d="M153.36,66.59c0.31,0,2.98,1.49,9.61-1.67c6.63-3.16,10.19-1.09,11.12-0.91c1.88,0.38,6.99,4.07,6.99,4.07"
				/>
		</g>
		<g>
			<path class="st8" d="M214.06,45.47c-0.31,0-2.98,1.49-9.61-1.67c-6.64-3.16-10.19-1.09-11.12-0.91
				c-1.88,0.37-6.98,4.07-6.98,4.07"/>
			<path class="st8" d="M213.98,55.85c-0.31,0-2.98,1.49-9.61-1.67c-6.63-3.16-10.19-1.1-11.12-0.91c-1.88,0.38-6.99,4.07-6.99,4.07
				"/>
			<path class="st8" d="M213.85,66.51c-0.31,0-2.98,1.49-9.61-1.67c-6.64-3.16-10.19-1.1-11.12-0.91c-1.88,0.38-6.99,4.07-6.99,4.07
				"/>
		</g>
	</g>
	<path d="M223.22,39.43c-0.37,0.33-3.43,0.91-3.43,0.91v0.78l1.8-0.5l-0.07,39.48c-0.03,0-0.09,0.02-0.19,0.08
		c-0.37,0.21-3.1,1.2-7.36,0.83c-4.26-0.37-6.41-2.4-11.45-3.39c-5.04-0.99-7.44,0.04-11.08,1.03c-3.64,0.99-8.24,3.98-8.24,3.98
		s-1.85-1.17-2.92-1.83c-1.08-0.66-6.57-4.01-12.9-3.56c-6.32,0.46-5.54,1.49-11.29,3.18c-5.75,1.7-10.58-0.19-10.58-0.19V40.67
		l1.98,0.58l0.04-0.79l-3.72-0.99v42.58c2.4,0.95,2.77,1.08,7.23,0.99c4.46-0.08,7.81-4.01,16.33-4.13
		c8.52-0.12,14.47,5.42,14.47,5.42h2.67c0.06-0.06,0.12-0.1,0.19-0.17c2.85-2.52,6.86-3.97,12.07-4.92
		c5.21-0.95,9.51,0.46,15.5,2.77c5.99,2.32,10.95-0.12,10.95-0.12S223.59,39.1,223.22,39.43z"/>
	<rect x="221.52" y="47.74" class="st9" width="6.94" height="3.14"/>
	<rect x="221.44" y="68.87" class="st9" width="6.7" height="2.89"/>
	<rect x="138.97" y="68.87" class="st9" width="6.57" height="3.06"/>
	<rect x="138.64" y="47.7" class="st9" width="6.86" height="3.02"/>
	<line class="st10" x1="127.89" y1="0" x2="127.89" y2="283.11"/>
	<rect x="283.29" y="51.01" class="st11" width="105.05" height="108.99"/>
	<rect x="396.34" y="51.01" class="st11" width="95.86" height="108.99"/>
	<rect x="499.99" y="51.01" class="st11" width="119.5" height="108.99"/>
	<path class="st2" d="M349.11,66.38h23.96v46.44c0,4.61-0.72,8.95-2.15,13.04c-1.43,4.09-3.68,7.67-6.74,10.74
		c-3.06,3.06-6.27,5.21-9.63,6.45c-4.67,1.74-10.27,2.61-16.81,2.61c-3.79,0-7.91-0.27-12.38-0.8c-4.47-0.54-8.21-1.58-11.22-3.16
		c-3.01-1.58-5.75-3.82-8.25-6.72c-2.49-2.91-4.2-5.9-5.12-8.99c-1.49-4.95-2.23-9.34-2.23-13.17V66.38h23.96v47.52
		c0,4.25,1.17,7.57,3.53,9.95c2.35,2.39,5.62,3.59,9.79,3.59c4.14,0,7.38-1.18,9.74-3.53c2.35-2.36,3.53-5.7,3.53-10.01V66.38z"/>
	<path class="st2" d="M411.19,66.38h40.04c8.72,0,15.25,2.07,19.6,6.21c4.34,4.14,6.51,10.03,6.51,17.67
		c0,7.85-2.37,13.99-7.11,18.41c-4.74,4.42-11.98,6.63-21.7,6.63h-13.21v29.05h-24.13V66.38z M435.32,99.53h5.91
		c4.65,0,7.92-0.81,9.8-2.42c1.88-1.62,2.83-3.68,2.83-6.2c0-2.45-0.82-4.52-2.45-6.23c-1.63-1.7-4.71-2.55-9.22-2.55h-6.87V99.53z"
		/>
	<path class="st2" d="M515.92,66.38h31.74l12.14,47.46l12.16-47.46h31.61v77.97h-19.7V84.93l-15.22,59.41H550.8l-15.19-59.41v59.41
		h-19.7V66.38z"/>
	<g>
		<path d="M282.06,173.77h3.43V183c0,1.46,0.04,2.41,0.13,2.85c0.15,0.7,0.5,1.26,1.05,1.68c0.55,0.42,1.31,0.63,2.27,0.63
			c0.97,0,1.71-0.2,2.2-0.6c0.49-0.4,0.79-0.89,0.89-1.47c0.1-0.58,0.15-1.55,0.15-2.89v-9.43h3.43v8.95c0,2.04-0.09,3.49-0.28,4.34
			c-0.18,0.85-0.53,1.56-1.03,2.14c-0.5,0.58-1.16,1.04-2,1.39c-0.83,0.35-1.92,0.52-3.26,0.52c-1.62,0-2.85-0.19-3.69-0.56
			c-0.84-0.38-1.5-0.87-1.99-1.46c-0.49-0.6-0.81-1.23-0.96-1.89c-0.22-0.98-0.34-2.42-0.34-4.32V173.77z"/>
		<path d="M298.96,190.79v-17.02h3.32l7.02,11.44v-11.44h3.17v17.02h-3.42l-6.91-11.22v11.22H298.96z"/>
		<path d="M315.73,190.79v-17.02h3.43v17.02H315.73z"/>
		<path d="M326.48,190.79l-6.03-17.02h3.72l4.29,12.59l4.17-12.59h3.64l-6.09,17.02H326.48z"/>
		<path d="M337.77,190.79v-17.02h12.62v2.88h-9.19v3.77h8.57v2.89h-8.57v4.6h9.51v2.89H337.77z"/>
		<path d="M353.35,190.79v-17.02h7.21c1.81,0,3.13,0.16,3.95,0.46c0.82,0.3,1.48,0.85,1.98,1.63c0.49,0.78,0.74,1.68,0.74,2.68
			c0,1.28-0.37,2.33-1.12,3.16c-0.75,0.83-1.86,1.36-3.35,1.57c0.74,0.43,1.35,0.91,1.83,1.43c0.48,0.52,1.13,1.44,1.94,2.76
			l2.07,3.32h-4.1l-2.45-3.71c-0.88-1.32-1.48-2.16-1.81-2.5c-0.32-0.34-0.67-0.58-1.04-0.71c-0.36-0.13-0.94-0.19-1.72-0.19h-0.7
			v7.11H353.35z M356.77,180.96h2.53c1.64,0,2.66-0.07,3.07-0.21c0.41-0.14,0.73-0.38,0.96-0.72c0.23-0.34,0.35-0.76,0.35-1.27
			c0-0.57-0.15-1.03-0.45-1.39c-0.31-0.35-0.74-0.57-1.29-0.67c-0.28-0.04-1.11-0.06-2.49-0.06h-2.67V180.96z"/>
		<path d="M369.32,185.22l3.34-0.32c0.2,1.12,0.61,1.94,1.23,2.47c0.62,0.53,1.45,0.79,2.5,0.79c1.11,0,1.95-0.23,2.51-0.7
			c0.56-0.47,0.85-1.02,0.85-1.64c0-0.4-0.12-0.74-0.35-1.02c-0.24-0.28-0.65-0.53-1.24-0.74c-0.4-0.14-1.32-0.39-2.75-0.74
			c-1.84-0.45-3.14-1.02-3.88-1.68c-1.04-0.93-1.56-2.08-1.56-3.42c0-0.87,0.24-1.68,0.74-2.43c0.49-0.75,1.2-1.33,2.12-1.72
			c0.92-0.39,2.04-0.59,3.35-0.59c2.13,0,3.74,0.47,4.82,1.42c1.08,0.94,1.65,2.2,1.7,3.78l-3.42,0.12
			c-0.15-0.87-0.46-1.5-0.95-1.88c-0.48-0.38-1.21-0.58-2.18-0.58c-1,0-1.78,0.21-2.35,0.62c-0.36,0.26-0.54,0.61-0.54,1.05
			c0,0.4,0.17,0.75,0.51,1.03c0.43,0.36,1.48,0.74,3.15,1.14c1.67,0.39,2.91,0.8,3.71,1.22c0.8,0.43,1.43,1,1.88,1.73
			c0.45,0.73,0.68,1.64,0.68,2.72c0,0.98-0.27,1.89-0.81,2.75c-0.54,0.86-1.31,1.49-2.3,1.91c-0.99,0.41-2.23,0.62-3.71,0.62
			c-2.15,0-3.81-0.5-4.96-1.5C370.24,188.59,369.55,187.13,369.32,185.22z"/>
		<path d="M385.71,190.79v-17.02h3.43v17.02H385.71z"/>
		<path d="M395.98,190.79v-14.14h-5.02v-2.88h13.47v2.88h-5.02v14.14H395.98z"/>
		<path d="M406.29,190.79v-17.02h3.43v17.02H406.29z"/>
		<path d="M419.08,190.79v-17.02h5.51c2.09,0,3.45,0.08,4.08,0.26c0.97,0.25,1.79,0.81,2.45,1.66c0.66,0.86,0.98,1.96,0.98,3.31
			c0,1.04-0.19,1.92-0.57,2.63c-0.38,0.71-0.86,1.27-1.45,1.68c-0.58,0.41-1.18,0.67-1.78,0.81c-0.82,0.16-2,0.25-3.56,0.25h-2.24
			v6.43H419.08z M422.51,176.65v4.83h1.88c1.35,0,2.26-0.09,2.71-0.27c0.46-0.18,0.81-0.46,1.07-0.83c0.26-0.38,0.39-0.82,0.39-1.32
			c0-0.62-0.18-1.13-0.54-1.53c-0.36-0.4-0.82-0.65-1.38-0.75c-0.41-0.08-1.24-0.12-2.47-0.12H422.51z"/>
		<path d="M434.66,173.77h3.43V183c0,1.46,0.04,2.41,0.13,2.85c0.15,0.7,0.5,1.26,1.05,1.68c0.55,0.42,1.31,0.63,2.26,0.63
			c0.97,0,1.71-0.2,2.2-0.6c0.49-0.4,0.79-0.89,0.89-1.47c0.1-0.58,0.15-1.55,0.15-2.89v-9.43h3.42v8.95c0,2.04-0.09,3.49-0.28,4.34
			c-0.19,0.85-0.53,1.56-1.03,2.14c-0.5,0.58-1.16,1.04-2,1.39c-0.83,0.35-1.92,0.52-3.27,0.52c-1.62,0-2.85-0.19-3.69-0.56
			c-0.84-0.38-1.5-0.87-1.99-1.46c-0.49-0.6-0.81-1.23-0.96-1.89c-0.22-0.98-0.34-2.42-0.34-4.32V173.77z"/>
		<path d="M455.38,190.79v-14.14h-5.03v-2.88h13.48v2.88h-5.03v14.14H455.38z"/>
		<path d="M465.8,190.79v-17.02h7.21c1.81,0,3.13,0.16,3.95,0.46c0.82,0.3,1.48,0.85,1.97,1.63c0.49,0.78,0.74,1.68,0.74,2.68
			c0,1.28-0.37,2.33-1.12,3.16c-0.75,0.83-1.86,1.36-3.35,1.57c0.74,0.43,1.35,0.91,1.83,1.43c0.48,0.52,1.13,1.44,1.94,2.76
			l2.07,3.32h-4.1l-2.45-3.71c-0.88-1.32-1.48-2.16-1.81-2.5c-0.32-0.34-0.67-0.58-1.03-0.71c-0.36-0.13-0.94-0.19-1.73-0.19h-0.69
			v7.11H465.8z M469.23,180.96h2.53c1.64,0,2.66-0.07,3.07-0.21c0.41-0.14,0.73-0.38,0.96-0.72c0.23-0.34,0.35-0.76,0.35-1.27
			c0-0.57-0.15-1.03-0.45-1.39c-0.31-0.35-0.74-0.57-1.29-0.67c-0.28-0.04-1.11-0.06-2.49-0.06h-2.67V180.96z"/>
		<path d="M498.03,190.79h-3.73l-1.46-3.86h-6.81l-1.4,3.86h-3.67l6.57-17.02h3.71L498.03,190.79z M491.72,184.04l-2.35-6.31
			l-2.29,6.31H491.72z"/>
		<path d="M505.01,190.79v-17.02h5.15l3.06,11.61l3.04-11.61h5.14v17.02h-3.17l-0.01-13.4l-3.35,13.4h-3.32l-3.35-13.4l-0.01,13.4
			H505.01z"/>
		<path d="M539.9,190.79h-3.74l-1.46-3.86h-6.81l-1.4,3.86h-3.67l6.57-17.02h3.71L539.9,190.79z M533.59,184.04l-2.35-6.31
			l-2.29,6.31H533.59z"/>
		<path d="M541.54,190.79v-16.88h3.43v13.99h8.54v2.89H541.54z"/>
		<path d="M571.04,190.79h-3.73l-1.46-3.86h-6.81l-1.4,3.86h-3.67l6.57-17.02h3.71L571.04,190.79z M564.73,184.04l-2.35-6.31
			l-2.29,6.31H564.73z"/>
		<path d="M574.86,190.79v-7.16l-6.24-9.85h4.05l4,6.74l3.91-6.74h3.95l-6.24,9.88v7.14H574.86z"/>
		<path d="M585.08,185.22l3.34-0.32c0.2,1.12,0.61,1.94,1.23,2.47c0.62,0.53,1.45,0.79,2.5,0.79c1.11,0,1.95-0.23,2.51-0.7
			c0.56-0.47,0.84-1.02,0.84-1.64c0-0.4-0.12-0.74-0.35-1.02c-0.24-0.28-0.65-0.53-1.24-0.74c-0.4-0.14-1.32-0.39-2.75-0.74
			c-1.84-0.45-3.14-1.02-3.88-1.68c-1.04-0.93-1.57-2.08-1.57-3.42c0-0.87,0.25-1.68,0.74-2.43c0.49-0.75,1.2-1.33,2.12-1.72
			c0.92-0.39,2.04-0.59,3.35-0.59c2.13,0,3.74,0.47,4.82,1.42c1.08,0.94,1.64,2.2,1.7,3.78l-3.43,0.12
			c-0.15-0.87-0.46-1.5-0.95-1.88c-0.48-0.38-1.21-0.58-2.18-0.58c-1,0-1.78,0.21-2.35,0.62c-0.36,0.26-0.55,0.61-0.55,1.05
			c0,0.4,0.17,0.75,0.51,1.03c0.43,0.36,1.48,0.74,3.15,1.14c1.67,0.39,2.91,0.8,3.71,1.22c0.8,0.43,1.43,1,1.88,1.73
			c0.45,0.73,0.68,1.64,0.68,2.72c0,0.98-0.27,1.89-0.81,2.75c-0.54,0.86-1.31,1.49-2.3,1.91c-0.99,0.41-2.23,0.62-3.71,0.62
			c-2.15,0-3.8-0.5-4.96-1.5C586,188.59,585.31,187.13,585.08,185.22z"/>
		<path d="M601.47,190.79v-17.02h3.43v17.02H601.47z"/>
		<path d="M623.25,190.79h-3.74l-1.46-3.86h-6.81l-1.4,3.86h-3.67l6.57-17.02h3.71L623.25,190.79z M616.94,184.04l-2.35-6.31
			l-2.29,6.31H616.94z"/>
	</g>
	<rect x="282.15" y="204.49" class="st3" width="337.1" height="24.67"/>
	<g>
		<path class="st2" d="M290.86,210.6h7.79c1.3,0,2.29,0.31,2.99,0.94c0.69,0.62,1.04,1.4,1.04,2.32c0,0.77-0.25,1.44-0.74,1.99
			c-0.33,0.37-0.81,0.66-1.46,0.88c0.97,0.22,1.69,0.61,2.14,1.16c0.46,0.55,0.69,1.24,0.69,2.07c0,0.68-0.16,1.29-0.49,1.83
			c-0.33,0.54-0.77,0.97-1.33,1.28c-0.35,0.2-0.88,0.34-1.58,0.43c-0.94,0.12-1.56,0.18-1.86,0.18h-7.18V210.6z M295.05,215.74h1.81
			c0.65,0,1.1-0.11,1.35-0.33c0.26-0.21,0.38-0.53,0.38-0.94c0-0.38-0.13-0.68-0.38-0.89c-0.25-0.22-0.69-0.32-1.32-0.32h-1.83
			V215.74z M295.05,220.87h2.12c0.72,0,1.22-0.12,1.52-0.37c0.29-0.25,0.44-0.58,0.44-1c0-0.39-0.15-0.7-0.44-0.93
			c-0.29-0.24-0.8-0.36-1.53-0.36h-2.12V220.87z"/>
		<path class="st2" d="M312.99,210.6h11.16v2.8h-7v2.08h6.48v2.66h-6.48v2.57h7.2v2.97h-11.37V210.6z"/>
		<path class="st2" d="M334.17,223.67V210.6h6.94c1.28,0,2.27,0.11,2.95,0.32c0.68,0.21,1.23,0.61,1.65,1.19
			c0.42,0.58,0.62,1.28,0.62,2.11c0,0.73-0.16,1.35-0.48,1.88c-0.32,0.53-0.76,0.95-1.32,1.28c-0.36,0.21-0.85,0.38-1.47,0.52
			c0.49,0.16,0.85,0.32,1.08,0.49c0.15,0.11,0.38,0.34,0.66,0.69c0.29,0.35,0.48,0.63,0.58,0.82l2.04,3.78h-4.71l-2.23-4
			c-0.28-0.52-0.54-0.85-0.75-1.01c-0.3-0.2-0.64-0.3-1.02-0.3h-0.37v5.31H334.17z M338.34,215.88h1.77c0.19,0,0.56-0.06,1.11-0.18
			c0.28-0.05,0.5-0.19,0.68-0.4c0.18-0.22,0.26-0.47,0.26-0.75c0-0.42-0.14-0.74-0.42-0.96c-0.28-0.23-0.8-0.33-1.57-0.33h-1.84
			V215.88z"/>
		<path class="st2" d="M356.45,210.6h4.17v13.07h-4.17V210.6z"/>
		<path class="st2" d="M371.13,210.6h4.17v9.85h6.51v3.22h-10.68V210.6z"/>
		<path class="st2" d="M391.18,210.6h5.48l2.1,7.95l2.1-7.95h5.46v13.07h-3.4v-9.97l-2.64,9.97h-3.08l-2.63-9.97v9.97h-3.4V210.6z"
			/>
		<path class="st2" d="M425.29,210.6h4.14v7.79c0,0.77-0.12,1.5-0.37,2.19c-0.25,0.69-0.64,1.29-1.17,1.8
			c-0.53,0.51-1.08,0.88-1.67,1.08c-0.81,0.29-1.78,0.44-2.91,0.44c-0.66,0-1.38-0.04-2.15-0.13c-0.77-0.09-1.42-0.27-1.94-0.53
			c-0.52-0.26-1-0.64-1.43-1.13c-0.43-0.49-0.73-0.99-0.88-1.51c-0.26-0.84-0.39-1.57-0.39-2.21v-7.79h4.14v7.98
			c0,0.71,0.21,1.27,0.62,1.67c0.41,0.4,0.98,0.6,1.71,0.6c0.72,0,1.28-0.19,1.69-0.59c0.41-0.4,0.61-0.96,0.61-1.68V210.6z"/>
		<path class="st2" d="M453.54,210.6h7.79c1.3,0,2.3,0.31,2.99,0.94c0.7,0.62,1.04,1.4,1.04,2.32c0,0.77-0.25,1.44-0.75,1.99
			c-0.33,0.37-0.81,0.66-1.45,0.88c0.97,0.22,1.68,0.61,2.14,1.16c0.45,0.55,0.69,1.24,0.69,2.07c0,0.68-0.16,1.29-0.49,1.83
			c-0.32,0.54-0.77,0.97-1.33,1.28c-0.35,0.2-0.88,0.34-1.58,0.43c-0.94,0.12-1.56,0.18-1.86,0.18h-7.19V210.6z M457.73,215.74h1.8
			c0.65,0,1.1-0.11,1.36-0.33c0.25-0.21,0.38-0.53,0.38-0.94c0-0.38-0.13-0.68-0.38-0.89c-0.26-0.22-0.7-0.32-1.33-0.32h-1.83
			V215.74z M457.73,220.87h2.12c0.72,0,1.22-0.12,1.52-0.37c0.29-0.25,0.44-0.58,0.44-1c0-0.39-0.15-0.7-0.44-0.93
			c-0.29-0.24-0.8-0.36-1.53-0.36h-2.11V220.87z"/>
		<path class="st2" d="M475.67,210.6h11.16v2.8h-6.99v2.08h6.48v2.66h-6.48v2.57h7.19v2.97h-11.36V210.6z"/>
		<path class="st2" d="M496.85,223.67V210.6h6.94c1.29,0,2.27,0.11,2.95,0.32c0.68,0.21,1.23,0.61,1.65,1.19
			c0.42,0.58,0.62,1.28,0.62,2.11c0,0.73-0.16,1.35-0.48,1.88c-0.32,0.53-0.76,0.95-1.32,1.28c-0.36,0.21-0.85,0.38-1.47,0.52
			c0.5,0.16,0.85,0.32,1.08,0.49c0.15,0.11,0.37,0.34,0.66,0.69c0.29,0.35,0.48,0.63,0.58,0.82l2.04,3.78h-4.7l-2.23-4
			c-0.28-0.52-0.53-0.85-0.75-1.01c-0.3-0.2-0.64-0.3-1.02-0.3h-0.37v5.31H496.85z M501.02,215.88h1.77c0.19,0,0.56-0.06,1.11-0.18
			c0.28-0.05,0.5-0.19,0.68-0.4c0.18-0.22,0.26-0.47,0.26-0.75c0-0.42-0.14-0.74-0.42-0.96c-0.28-0.23-0.8-0.33-1.57-0.33h-1.84
			V215.88z"/>
		<path class="st2" d="M518.98,210.6h7.79c1.3,0,2.3,0.31,2.99,0.94c0.7,0.62,1.04,1.4,1.04,2.32c0,0.77-0.25,1.44-0.74,1.99
			c-0.33,0.37-0.82,0.66-1.45,0.88c0.97,0.22,1.68,0.61,2.14,1.16c0.46,0.55,0.69,1.24,0.69,2.07c0,0.68-0.16,1.29-0.49,1.83
			c-0.32,0.54-0.77,0.97-1.33,1.28c-0.35,0.2-0.88,0.34-1.58,0.43c-0.94,0.12-1.56,0.18-1.86,0.18h-7.19V210.6z M523.18,215.74h1.8
			c0.65,0,1.1-0.11,1.36-0.33c0.26-0.21,0.38-0.53,0.38-0.94c0-0.38-0.12-0.68-0.38-0.89c-0.25-0.22-0.7-0.32-1.33-0.32h-1.83
			V215.74z M523.18,220.87h2.12c0.72,0,1.22-0.12,1.52-0.37c0.29-0.25,0.44-0.58,0.44-1c0-0.39-0.15-0.7-0.44-0.93
			c-0.29-0.24-0.8-0.36-1.53-0.36h-2.11V220.87z"/>
		<path class="st2" d="M549.08,221.5h-4.71l-0.68,2.17h-4.25l5.06-13.07h4.58l5.04,13.07h-4.36L549.08,221.5z M548.19,218.67
			l-1.47-4.69l-1.47,4.69H548.19z"/>
		<path class="st2" d="M562.99,210.6h4.17v4.94l4.35-4.94h5.53l-4.88,4.91l5.11,8.17h-5.13l-2.81-5.33l-2.17,2.18v3.15h-4.17V210.6z
			"/>
		<path class="st2" d="M585.23,210.6h12.68v3.22h-4.26v9.85h-4.17v-9.85h-4.25V210.6z"/>
		<path class="st2" d="M607.46,210.6h4.17v13.07h-4.17V210.6z"/>
	</g>
</g>
</svg>
